<?xml version="1.0" encoding="UTF-8"?>
<!DOCTYPE svg PUBLIC "-//W3C//DTD SVG 1.1//EN" "http://www.w3.org/Graphics/SVG/1.1/DTD/svg11.dtd">
<svg xmlns="http://www.w3.org/2000/svg" version="1.1" width="259px" height="194px" style="shape-rendering:geometricPrecision; text-rendering:geometricPrecision; image-rendering:optimizeQuality; fill-rule:evenodd; clip-rule:evenodd" xmlns:xlink="http://www.w3.org/1999/xlink">
<g><path style="opacity:0.475" fill="#707070" d="M 97.5,1.5 C 95.4855,2.92381 93.1522,3.59047 90.5,3.5C 92.5145,2.07619 94.8478,1.40953 97.5,1.5 Z"/></g>
<g><path style="opacity:0.989" fill="#292929" d="M 103.5,-0.5 C 114.5,-0.5 125.5,-0.5 136.5,-0.5C 135.856,1.47781 134.522,2.81114 132.5,3.5C 122.816,2.58137 113.15,3.08137 103.5,5C 100.325,5.49318 97.6586,6.65985 95.5,8.5C 95.1667,8.5 94.8333,8.5 94.5,8.5C 94.2648,7.90326 93.7648,7.56993 93,7.5C 86.5437,10.8299 79.7103,13.3299 72.5,15C 71.9535,15.9246 71.2868,16.7579 70.5,17.5C 63.317,19.5852 57.317,23.4186 52.5,29C 51.2341,29.3095 50.0674,29.8095 49,30.5C 42.1435,39.4589 34.9768,47.9589 27.5,56C 27.4698,61.5786 25.3031,66.412 21,70.5C 19.9701,70.1639 19.4701,69.4972 19.5,68.5C 20.3491,63.8101 22.0157,59.4768 24.5,55.5C 25.9063,55.0269 26.573,54.0269 26.5,52.5C 26.3284,51.5084 26.6618,50.8417 27.5,50.5C 28.9063,50.0269 29.573,49.0269 29.5,47.5C 32.0745,42.591 35.4078,38.2577 39.5,34.5C 40.8333,33.8333 41.8333,32.8333 42.5,31.5C 55.7759,17.5703 71.7759,8.23694 90.5,3.5C 93.1522,3.59047 95.4855,2.92381 97.5,1.5C 99.5,0.833333 101.5,0.166667 103.5,-0.5 Z"/></g>
<g><path style="opacity:1" fill="#e7e7e7" d="M 77.5,17.5 C 78.3823,21.4441 80.3823,24.6108 83.5,27C 82.5,27.5 81.5,28 80.5,28.5C 78.4887,25.1389 76.4887,21.8056 74.5,18.5C 75.391,17.8902 76.391,17.5569 77.5,17.5 Z"/></g>
<g><path style="opacity:1" fill="#e4e4e4" d="M 174.5,18.5 C 175.995,18.4148 176.995,19.0815 177.5,20.5C 176.82,21.8599 176.153,23.1932 175.5,24.5C 174.399,25.8484 173.399,27.3484 172.5,29C 171.092,29.3152 169.759,28.9819 168.5,28C 171.507,26.0287 173.841,23.362 175.5,20C 174.944,19.6174 174.611,19.1174 174.5,18.5 Z"/></g>
<g><path style="opacity:1" fill="#e1e1e0" d="M 169.5,20.5 C 169.719,21.675 169.386,22.675 168.5,23.5C 167.827,20.0032 165.827,18.8365 162.5,20C 163.167,20.3333 163.833,20.6667 164.5,21C 162.595,21.8261 162.261,22.9928 163.5,24.5C 168.696,25.7684 168.696,26.4351 163.5,26.5C 158.295,23.3916 158.295,20.3916 163.5,17.5C 165.741,18.1286 167.741,19.1286 169.5,20.5 Z"/></g>
<g><path style="opacity:1" fill="#3c1f12" d="M 145.5,26.5 C 154.019,27.596 160.352,31.9293 164.5,39.5C 164.833,42.1667 165.167,44.8333 165.5,47.5C 165.512,58.3591 166.179,69.0258 167.5,79.5C 167.369,80.2389 167.536,80.9056 168,81.5C 169.878,82.0527 171.378,83.0527 172.5,84.5C 172.5,85.1667 172.5,85.8333 172.5,86.5C 170.566,85.8897 168.899,84.8897 167.5,83.5C 166.878,82.3734 166.045,81.3734 165,80.5C 164.878,67.4594 164.211,54.4594 163,41.5C 160.888,36.3883 157.388,32.555 152.5,30C 146.583,28.5494 140.583,27.3827 134.5,26.5C 129.108,27.1863 124.108,28.853 119.5,31.5C 122.04,28.3932 125.373,26.5599 129.5,26C 134.854,25.4715 140.187,25.6381 145.5,26.5 Z"/></g>
<g><path style="opacity:1" fill="#484746" d="M 136.5,-0.5 C 138.5,-0.5 140.5,-0.5 142.5,-0.5C 152.576,1.1036 162.242,4.1036 171.5,8.5C 170.5,8.5 169.5,8.5 168.5,8.5C 167.974,11.8078 169.307,13.9745 172.5,15C 171.137,17.1293 171.471,17.6293 173.5,16.5C 174.298,16.9569 174.631,17.6236 174.5,18.5C 174.611,19.1174 174.944,19.6174 175.5,20C 173.841,23.362 171.507,26.0287 168.5,28C 169.759,28.9819 171.092,29.3152 172.5,29C 173.399,27.3484 174.399,25.8484 175.5,24.5C 175.973,25.9063 176.973,26.573 178.5,26.5C 177.058,27.8195 176.392,29.4862 176.5,31.5C 175.732,30.7375 175.232,29.7375 175,28.5C 173.208,30.7075 170.874,32.0408 168,32.5C 167.667,31.8333 167.333,31.1667 167,30.5C 166.02,31.9814 164.853,33.3147 163.5,34.5C 164.309,36.0709 164.643,37.7376 164.5,39.5C 160.352,31.9293 154.019,27.596 145.5,26.5C 150.429,26.2535 155.095,27.2535 159.5,29.5C 159.911,28.7376 160.077,27.7376 160,26.5C 162.199,29.0547 163.365,29.0547 163.5,26.5C 168.696,26.4351 168.696,25.7684 163.5,24.5C 162.261,22.9928 162.595,21.8261 164.5,21C 163.833,20.6667 163.167,20.3333 162.5,20C 165.827,18.8365 167.827,20.0032 168.5,23.5C 169.386,22.675 169.719,21.675 169.5,20.5C 169.769,18.5714 169.269,16.9047 168,15.5C 167.667,15.8333 167.333,16.1667 167,16.5C 163.235,13.5163 159.068,11.183 154.5,9.5C 152.007,8.2264 149.674,8.55974 147.5,10.5C 147.511,9.55855 147.011,8.89188 146,8.5C 144.251,8.74831 143.418,9.74831 143.5,11.5C 142.167,11.5 140.833,11.5 139.5,11.5C 140.263,10.7321 141.263,10.2321 142.5,10C 139.5,8.83333 136.5,7.66667 133.5,6.5C 132.817,6.86273 132.15,7.19607 131.5,7.5C 126.537,6.74595 121.537,6.41262 116.5,6.5C 112.307,6.56724 107.974,6.73391 103.5,7C 101.731,8.01938 100.064,8.18605 98.5,7.5C 97.8333,8.16667 97.1667,8.83333 96.5,9.5C 95.8933,9.37642 95.56,9.04309 95.5,8.5C 97.6586,6.65985 100.325,5.49318 103.5,5C 113.15,3.08137 122.816,2.58137 132.5,3.5C 134.522,2.81114 135.856,1.47781 136.5,-0.5 Z"/></g>
<g><path style="opacity:0.161" fill="#b7b7b7" d="M 42.5,31.5 C 41.8333,32.8333 40.8333,33.8333 39.5,34.5C 39.5,32.5 40.5,31.5 42.5,31.5 Z"/></g>
<g><path style="opacity:1" fill="#e8e8e8" d="M 178.5,26.5 C 183.697,26.8574 186.197,29.524 186,34.5C 181.874,36.3999 178.707,35.3999 176.5,31.5C 176.392,29.4862 177.058,27.8195 178.5,26.5 Z"/></g>
<g><path style="opacity:1" fill="#5c5b5b" d="M 116.5,6.5 C 116.821,8.04814 117.821,8.71481 119.5,8.5C 119.5,11.5 119.5,14.5 119.5,17.5C 123.967,17.8674 128.3,17.3674 132.5,16C 135.185,12.8833 134.852,10.05 131.5,7.5C 132.15,7.19607 132.817,6.86273 133.5,6.5C 136.5,7.66667 139.5,8.83333 142.5,10C 141.263,10.2321 140.263,10.7321 139.5,11.5C 134.625,13.3093 134.292,15.8093 138.5,19C 140.5,19.6667 142.5,19.6667 144.5,19C 142.22,18.7674 140.22,17.934 138.5,16.5C 139.333,16.1667 140.167,15.8333 141,15.5C 142.825,15.9434 144.658,16.2767 146.5,16.5C 146.279,14.3364 145.279,12.6697 143.5,11.5C 143.418,9.74831 144.251,8.74831 146,8.5C 147.011,8.89188 147.511,9.55855 147.5,10.5C 149.674,8.55974 152.007,8.2264 154.5,9.5C 159.068,11.183 163.235,13.5163 167,16.5C 167.333,16.1667 167.667,15.8333 168,15.5C 169.269,16.9047 169.769,18.5714 169.5,20.5C 167.741,19.1286 165.741,18.1286 163.5,17.5C 158.295,20.3916 158.295,23.3916 163.5,26.5C 163.365,29.0547 162.199,29.0547 160,26.5C 160.077,27.7376 159.911,28.7376 159.5,29.5C 155.095,27.2535 150.429,26.2535 145.5,26.5C 140.187,25.6381 134.854,25.4715 129.5,26C 125.373,26.5599 122.04,28.3932 119.5,31.5C 116.442,33.2431 114.442,35.9098 113.5,39.5C 112.833,39.5 112.167,39.5 111.5,39.5C 99.8769,35.3703 89.3769,37.3703 80,45.5C 78.653,56.2781 80.4864,66.6115 85.5,76.5C 82.7653,78.5207 80.0986,80.5207 77.5,82.5C 73.5747,83.0996 70.9081,85.0996 69.5,88.5C 67.6854,89.6298 65.6854,90.2964 63.5,90.5C 63.2965,88.6096 63.9632,87.1096 65.5,86C 64.2954,84.7295 62.9621,84.0628 61.5,84C 60.5,85 59.5,86 58.5,87C 59.8333,88 59.8333,89 58.5,90C 54.8667,90.8196 51.8667,92.6529 49.5,95.5C 48.914,95.2907 48.414,94.9574 48,94.5C 45.4301,97.9473 42.4301,100.947 39,103.5C 38.6667,102.833 38.3333,102.167 38,101.5C 36.8783,103.624 35.3783,105.457 33.5,107C 32.2559,107.456 31.4226,106.956 31,105.5C 29.691,107.686 29.5243,109.853 30.5,112C 29.9747,112.692 29.3081,113.192 28.5,113.5C 27.1978,108.071 25.5311,102.738 23.5,97.5C 23.5427,96.5836 23.8761,95.9169 24.5,95.5C 28.1225,96.468 31.6225,97.8013 35,99.5C 35.6667,97.1667 35.6667,94.8333 35,92.5C 34.4806,93.5156 33.6473,94.1822 32.5,94.5C 30.2178,93.7766 27.8845,93.4433 25.5,93.5C 25.687,91.4357 26.187,89.4357 27,87.5C 28.0113,86.6634 29.1779,86.33 30.5,86.5C 30.3398,88.1992 30.5065,89.8659 31,91.5C 31.769,88.9009 31.6023,86.4009 30.5,84C 28.0448,83.2938 26.3781,84.1271 25.5,86.5C 24.5084,86.6716 23.8417,86.3382 23.5,85.5C 24.3416,79.7174 25.8416,73.7174 28,67.5C 34.9306,49.1383 47.5973,34.4716 66,23.5C 68.159,25.9563 68.9923,25.2896 68.5,21.5C 70.9468,21.385 72.9468,20.385 74.5,18.5C 76.4887,21.8056 78.4887,25.1389 80.5,28.5C 81.5,28 82.5,27.5 83.5,27C 80.3823,24.6108 78.3823,21.4441 77.5,17.5C 78.7899,16.9423 79.6232,15.9423 80,14.5C 80.414,14.9574 80.914,15.2907 81.5,15.5C 86.1507,13.6054 90.484,11.2721 94.5,8.5C 94.8333,8.5 95.1667,8.5 95.5,8.5C 95.56,9.04309 95.8933,9.37642 96.5,9.5C 97.1667,8.83333 97.8333,8.16667 98.5,7.5C 100.064,8.18605 101.731,8.01938 103.5,7C 107.974,6.73391 112.307,6.56724 116.5,6.5 Z"/></g>
<g><path style="opacity:1" fill="#d1d1d1" d="M 69.5,25.5 C 70.8734,25.3433 72.2068,25.51 73.5,26C 74.1667,28 75.5,29.3333 77.5,30C 75.0207,32.67 72.0207,34.17 68.5,34.5C 68.5494,31.9009 69.5494,29.7342 71.5,28C 69.065,27.9252 68.3984,27.0919 69.5,25.5 Z"/></g>
<g><path style="opacity:1" fill="#e8e8e8" d="M 90.5,14.5 C 92.0098,15.7279 93.5098,15.7279 95,14.5C 95.1667,14.8333 95.3333,15.1667 95.5,15.5C 91.9904,17.7872 92.3237,19.9538 96.5,22C 94.8876,22.7203 93.3876,22.5536 92,21.5C 90.1715,19.2668 89.6715,16.9335 90.5,14.5 Z"/></g>
<g><path style="opacity:1" fill="#dfdfdf" d="M 83.5,18.5 C 84.675,18.281 85.675,18.6143 86.5,19.5C 87.0318,21.7411 88.3651,23.2411 90.5,24C 89.2341,24.3095 88.0674,24.8095 87,25.5C 86.3147,22.9427 84.8147,21.1094 82.5,20C 83.056,19.6174 83.3893,19.1174 83.5,18.5 Z"/></g>
<g><path style="opacity:1" fill="#e1e1e1" d="M 148.5,14.5 C 149.189,13.2264 150.023,13.2264 151,14.5C 151.862,16.087 152.529,17.7536 153,19.5C 154.295,17.8783 155.795,16.545 157.5,15.5C 158.737,15.5565 159.737,16.0565 160.5,17C 157.213,17.6159 154.379,19.1159 152,21.5C 150.724,19.1417 149.558,16.8084 148.5,14.5 Z"/></g>
<g><path style="opacity:1" fill="#dfdfdf" d="M 107.5,11.5 C 108.239,11.369 108.906,11.5357 109.5,12C 107.099,15.5229 105.266,19.3563 104,23.5C 102.951,24.5171 101.784,24.6838 100.5,24C 102.18,23.6532 103.18,22.6532 103.5,21C 102.224,18.7194 100.557,16.7194 98.5,15C 99.0253,14.3076 99.6919,13.8076 100.5,13.5C 102.569,18.1877 104.569,18.3544 106.5,14C 105.833,13.6667 105.167,13.3333 104.5,13C 105.737,12.7679 106.737,12.2679 107.5,11.5 Z"/></g>
<g><path style="opacity:1" fill="#d7d7d7" d="M 139.5,11.5 C 140.833,11.5 142.167,11.5 143.5,11.5C 145.279,12.6697 146.279,14.3364 146.5,16.5C 144.658,16.2767 142.825,15.9434 141,15.5C 140.167,15.8333 139.333,16.1667 138.5,16.5C 140.22,17.934 142.22,18.7674 144.5,19C 142.5,19.6667 140.5,19.6667 138.5,19C 134.292,15.8093 134.625,13.3093 139.5,11.5 Z"/></g>
<g><path style="opacity:1" fill="#5f5f5f" d="M 139.5,12.5 C 141.103,12.3118 142.437,12.8118 143.5,14C 141.833,14.6667 140.167,14.6667 138.5,14C 139.056,13.6174 139.389,13.1174 139.5,12.5 Z"/></g>
<g><path style="opacity:1" fill="#d7d8d8" d="M 116.5,6.5 C 121.537,6.41262 126.537,6.74595 131.5,7.5C 134.852,10.05 135.185,12.8833 132.5,16C 128.3,17.3674 123.967,17.8674 119.5,17.5C 119.5,14.5 119.5,11.5 119.5,8.5C 117.821,8.71481 116.821,8.04814 116.5,6.5 Z"/></g>
<g><path style="opacity:1" fill="#5b5b5b" d="M 122.5,8.5 C 124.857,8.33669 127.19,8.50335 129.5,9C 132.054,11.3975 132.054,13.7309 129.5,16C 127.19,16.4966 124.857,16.6633 122.5,16.5C 122.5,13.8333 122.5,11.1667 122.5,8.5 Z"/></g>
<g><path style="opacity:1" fill="#e8e8e8" d="M 60.5,32.5 C 61.8734,32.3433 63.2068,32.51 64.5,33C 65.3757,34.5848 66.7091,35.5848 68.5,36C 67.4214,36.956 66.2547,37.7894 65,38.5C 63.2491,33.8444 61.0824,33.5111 58.5,37.5C 59.3636,39.1965 60.6969,40.3632 62.5,41C 61.9747,41.6924 61.3081,42.1924 60.5,42.5C 58.6841,41.1851 57.0175,39.6851 55.5,38C 57.3734,36.2962 59.0401,34.4628 60.5,32.5 Z"/></g>
<g><path style="opacity:1" fill="#2c2c2c" d="M 192.5,36.5 C 194.081,38.1417 194.747,40.1417 194.5,42.5C 192.435,42.4828 190.435,42.1495 188.5,41.5C 189.08,39.2512 190.413,37.5846 192.5,36.5 Z"/></g>
<g><path style="opacity:1" fill="#3a3b3b" d="M 171.5,8.5 C 179.02,11.7083 186.02,15.7083 192.5,20.5C 190.821,20.8923 189.154,21.3923 187.5,22C 188.473,24.635 190.14,26.635 192.5,28C 190.431,28.3242 190.098,29.1575 191.5,30.5C 190.807,31.5178 190.141,32.5178 189.5,33.5C 188.736,36.787 186.903,39.4537 184,41.5C 182.893,40.2881 182.393,40.6214 182.5,42.5C 181.883,42.3893 181.383,42.056 181,41.5C 178.811,44.6913 175.978,45.6913 172.5,44.5C 170.929,47.0934 168.596,48.0934 165.5,47.5C 165.167,44.8333 164.833,42.1667 164.5,39.5C 164.643,37.7376 164.309,36.0709 163.5,34.5C 164.853,33.3147 166.02,31.9814 167,30.5C 167.333,31.1667 167.667,31.8333 168,32.5C 170.874,32.0408 173.208,30.7075 175,28.5C 175.232,29.7375 175.732,30.7375 176.5,31.5C 178.707,35.3999 181.874,36.3999 186,34.5C 186.197,29.524 183.697,26.8574 178.5,26.5C 176.973,26.573 175.973,25.9063 175.5,24.5C 176.153,23.1932 176.82,21.8599 177.5,20.5C 176.995,19.0815 175.995,18.4148 174.5,18.5C 174.631,17.6236 174.298,16.9569 173.5,16.5C 171.471,17.6293 171.137,17.1293 172.5,15C 169.307,13.9745 167.974,11.8078 168.5,8.5C 169.5,8.5 170.5,8.5 171.5,8.5 Z"/></g>
<g><path style="opacity:1" fill="#373737" d="M 179.5,28.5 C 183.485,28.6294 184.818,30.4628 183.5,34C 179.266,34.267 177.933,32.4336 179.5,28.5 Z"/></g>
<g><path style="opacity:1" fill="#e7e7e7" d="M 189.5,33.5 C 191.19,33.8564 192.19,34.8564 192.5,36.5C 190.413,37.5846 189.08,39.2512 188.5,41.5C 186.956,41.7031 185.622,42.3698 184.5,43.5C 183.817,43.1373 183.15,42.8039 182.5,42.5C 182.393,40.6214 182.893,40.2881 184,41.5C 186.903,39.4537 188.736,36.787 189.5,33.5 Z"/></g>
<g><path style="opacity:1" fill="#b75a30" d="M 122.5,45.5 C 121.833,45.5 121.5,45.1667 121.5,44.5C 122.289,44.2172 122.956,43.7172 123.5,43C 118.719,42.4818 118.386,41.1485 122.5,39C 121.5,38.6667 120.5,38.3333 119.5,38C 122.707,37.4283 124.374,35.595 124.5,32.5C 128.933,31.8805 133.266,31.5471 137.5,31.5C 138.696,31.8457 138.696,32.3457 137.5,33C 138.5,33.3333 139.5,33.6667 140.5,34C 139.072,36.1847 137.405,38.1847 135.5,40C 131.406,42.3796 127.073,44.2129 122.5,45.5 Z"/></g>
<g><path style="opacity:1" fill="#d4d4d4" d="M 192.5,36.5 C 195.787,37.2729 197.287,39.2729 197,42.5C 193.742,45.3459 190.908,45.0126 188.5,41.5C 190.435,42.1495 192.435,42.4828 194.5,42.5C 194.747,40.1417 194.081,38.1417 192.5,36.5 Z"/></g>
<g><path style="opacity:1" fill="#372716" d="M 111.5,39.5 C 110.5,39.5 109.5,39.5 108.5,39.5C 97.6995,36.8225 88.5329,39.4892 81,47.5C 80.5357,48.0944 80.369,48.7611 80.5,49.5C 80.5,50.8333 80.5,52.1667 80.5,53.5C 80.2938,56.4951 80.9605,59.1617 82.5,61.5C 82.7556,64.5979 83.4222,67.5979 84.5,70.5C 84.6596,72.153 85.3263,73.4863 86.5,74.5C 86.5,75.1667 86.5,75.8333 86.5,76.5C 84.4376,79.7119 81.4376,81.7119 77.5,82.5C 80.0986,80.5207 82.7653,78.5207 85.5,76.5C 80.4864,66.6115 78.653,56.2781 80,45.5C 89.3769,37.3703 99.8769,35.3703 111.5,39.5 Z"/></g>
<g><path style="opacity:1" fill="#b58855" d="M 108.5,39.5 C 106.031,40.3171 103.365,40.8171 100.5,41C 104.14,42.1339 103.807,43.1339 99.5,44C 100.5,45 101.5,46 102.5,47C 97.6576,45.6854 92.6576,45.352 87.5,46C 84.8608,46.6529 82.5274,47.8196 80.5,49.5C 80.369,48.7611 80.5357,48.0944 81,47.5C 88.5329,39.4892 97.6995,36.8225 108.5,39.5 Z"/></g>
<g><path style="opacity:1" fill="#2c2c2c" d="M 192.5,20.5 C 201.521,26.1879 208.855,33.5213 214.5,42.5C 213.015,41.0651 211.682,41.2317 210.5,43C 212.506,43.8487 213.172,45.0154 212.5,46.5C 211.184,43.972 210.017,43.972 209,46.5C 208.577,45.0439 207.744,44.5439 206.5,45C 206.833,45.3333 207.167,45.6667 207.5,46C 206.177,46.8159 205.511,47.9826 205.5,49.5C 203.901,47.3962 202.068,45.3962 200,43.5C 199.154,45.8468 197.654,47.6801 195.5,49C 196,49.5 196.5,50 197,50.5C 198.816,48.5586 200.816,47.8919 203,48.5C 203.781,49.9437 203.614,51.277 202.5,52.5C 201.261,52.9424 200.261,53.6091 199.5,54.5C 198.504,54.4142 197.671,54.7476 197,55.5C 195.921,53.6063 194.587,53.273 193,54.5C 192.275,52.842 191.108,52.342 189.5,53C 185.986,57.5132 181.819,61.3465 177,64.5C 175.951,63.4829 174.784,63.3162 173.5,64C 172.809,67.9946 171.642,71.8279 170,75.5C 169.333,74.8333 168.667,74.1667 168,73.5C 167.505,75.4727 167.338,77.4727 167.5,79.5C 166.179,69.0258 165.512,58.3591 165.5,47.5C 168.596,48.0934 170.929,47.0934 172.5,44.5C 175.978,45.6913 178.811,44.6913 181,41.5C 181.383,42.056 181.883,42.3893 182.5,42.5C 183.15,42.8039 183.817,43.1373 184.5,43.5C 185.622,42.3698 186.956,41.7031 188.5,41.5C 190.908,45.0126 193.742,45.3459 197,42.5C 197.287,39.2729 195.787,37.2729 192.5,36.5C 192.19,34.8564 191.19,33.8564 189.5,33.5C 190.141,32.5178 190.807,31.5178 191.5,30.5C 190.098,29.1575 190.431,28.3242 192.5,28C 190.14,26.635 188.473,24.635 187.5,22C 189.154,21.3923 190.821,20.8923 192.5,20.5 Z"/></g>
<g><path style="opacity:0.133" fill="#a0a0a0" d="M 215.5,43.5 C 216.906,43.9731 217.573,44.9731 217.5,46.5C 216.094,46.0269 215.427,45.0269 215.5,43.5 Z"/></g>
<g><path style="opacity:1" fill="#783e25" d="M 167.5,83.5 C 166.167,84.8333 166.167,86.1667 167.5,87.5C 167.833,88.1667 168.167,88.8333 168.5,89.5C 167.833,89.8333 167.167,90.1667 166.5,90.5C 163.194,83.8611 158.194,78.8611 151.5,75.5C 151.5,75.1667 151.5,74.8333 151.5,74.5C 153.262,74.3573 154.929,74.6906 156.5,75.5C 157.815,77.3159 159.315,78.9825 161,80.5C 161.333,80.1667 161.667,79.8333 162,79.5C 162.667,68.8333 162.667,58.1667 162,47.5C 159.877,37.5019 153.71,31.6686 143.5,30C 135.181,28.3853 127.514,29.7187 120.5,34C 118.7,35.8119 117.033,37.6452 115.5,39.5C 114.833,39.5 114.167,39.5 113.5,39.5C 114.442,35.9098 116.442,33.2431 119.5,31.5C 124.108,28.853 129.108,27.1863 134.5,26.5C 140.583,27.3827 146.583,28.5494 152.5,30C 157.388,32.555 160.888,36.3883 163,41.5C 164.211,54.4594 164.878,67.4594 165,80.5C 166.045,81.3734 166.878,82.3734 167.5,83.5 Z"/></g>
<g><path style="opacity:0.129" fill="#989898" d="M 29.5,47.5 C 29.573,49.0269 28.9063,50.0269 27.5,50.5C 27.427,48.9731 28.0937,47.9731 29.5,47.5 Z"/></g>
<g><path style="opacity:1" fill="#e0e0e0" d="M 49.5,44.5 C 52.3994,40.3503 54.7328,40.6837 56.5,45.5C 55.8913,49.2755 53.7246,51.6088 50,52.5C 45.592,50.1807 45.4253,47.514 49.5,44.5 Z"/></g>
<g><path style="opacity:1" fill="#5d5d5d" d="M 49.5,44.5 C 51.1667,44.5 52.8333,44.5 54.5,44.5C 55.0755,47.5715 53.9088,49.5715 51,50.5C 49.5,50.3333 48.6667,49.5 48.5,48C 48.9891,46.8615 49.3225,45.6948 49.5,44.5 Z"/></g>
<g><path style="opacity:1" fill="#fadaab" d="M 146.5,40.5 C 147.586,40.62 148.253,41.2867 148.5,42.5C 147.413,46.3039 146.079,49.9706 144.5,53.5C 138.234,58.818 131.234,60.4847 123.5,58.5C 123.259,56.1137 123.925,54.1137 125.5,52.5C 128.889,51.3091 132.222,49.8091 135.5,48C 138.878,44.9854 142.544,42.4854 146.5,40.5 Z"/></g>
<g><path style="opacity:1" fill="#f2c689" d="M 100.5,49.5 C 100.5,50.5 100.5,51.5 100.5,52.5C 101.5,52.5 102.5,52.5 103.5,52.5C 103.666,57.5111 103.499,62.5111 103,67.5C 102.333,68.8333 101.667,70.1667 101,71.5C 97.4167,73.5182 93.5833,74.8515 89.5,75.5C 88.8243,76.6016 88.1577,77.6016 87.5,78.5C 87.6716,77.5084 87.3382,76.8417 86.5,76.5C 86.5,75.8333 86.5,75.1667 86.5,74.5C 89.4645,72.5517 92.4645,70.5517 95.5,68.5C 103.298,56.2623 99.9643,50.7623 85.5,52C 84.4335,54.012 83.1002,54.512 81.5,53.5C 82.2543,50.909 83.921,49.0757 86.5,48C 91.3182,47.2206 95.9849,47.7206 100.5,49.5 Z"/></g>
<g><path style="opacity:0.086" fill="#b0b0b0" d="M 26.5,52.5 C 26.573,54.0269 25.9063,55.0269 24.5,55.5C 24.427,53.9731 25.0937,52.9731 26.5,52.5 Z"/></g>
<g><path style="opacity:1" fill="#d9d9d9" d="M 43.5,51.5 C 46.1338,52.6584 45.9671,53.6584 43,54.5C 42.3123,55.3317 42.479,55.9984 43.5,56.5C 44.8333,55.5 46.1667,54.5 47.5,53.5C 49.8853,54.8134 50.0519,56.4801 48,58.5C 47.6667,57.5 47.3333,56.5 47,55.5C 45.1038,57.5299 42.9371,59.1966 40.5,60.5C 40.0133,61.4461 39.6799,62.4461 39.5,63.5C 40.4978,65.6122 41.8312,66.6122 43.5,66.5C 43,67.5 42.5,68.5 42,69.5C 39.9913,66.7417 37.9913,66.4084 36,68.5C 36.8419,62.1454 39.3419,56.4788 43.5,51.5 Z"/></g>
<g><path style="opacity:1" fill="#d7d7d7" d="M 205.5,49.5 C 207.249,51.9276 208.582,54.5943 209.5,57.5C 208.873,59.7873 207.54,61.454 205.5,62.5C 205.565,62.9382 205.399,63.2716 205,63.5C 204.365,62.0337 203.531,60.7003 202.5,59.5C 203.66,59.5634 204.994,59.2301 206.5,58.5C 207.272,52.6451 205.438,51.9784 201,56.5C 200.283,55.9558 199.783,55.2891 199.5,54.5C 200.261,53.6091 201.261,52.9424 202.5,52.5C 203.614,51.277 203.781,49.9437 203,48.5C 200.816,47.8919 198.816,48.5586 197,50.5C 196.5,50 196,49.5 195.5,49C 197.654,47.6801 199.154,45.8468 200,43.5C 202.068,45.3962 203.901,47.3962 205.5,49.5 Z"/></g>
<g><path style="opacity:1" fill="#8a3a17" d="M 151.5,74.5 C 150.5,74.5 149.5,74.5 148.5,74.5C 156.999,67.3286 160.333,58.3286 158.5,47.5C 158.16,45.321 157.16,43.4877 155.5,42C 153.045,40.6884 150.545,39.5218 148,38.5C 147.283,39.0442 146.783,39.7109 146.5,40.5C 142.544,42.4854 138.878,44.9854 135.5,48C 132.222,49.8091 128.889,51.3091 125.5,52.5C 124.198,51.1931 122.865,51.1931 121.5,52.5C 121.167,52 120.833,51.5 120.5,51C 121.32,49.1997 121.986,47.3664 122.5,45.5C 127.073,44.2129 131.406,42.3796 135.5,40C 137.405,38.1847 139.072,36.1847 140.5,34C 139.5,33.6667 138.5,33.3333 137.5,33C 138.696,32.3457 138.696,31.8457 137.5,31.5C 133.266,31.5471 128.933,31.8805 124.5,32.5C 124.374,35.595 122.707,37.4283 119.5,38C 120.5,38.3333 121.5,38.6667 122.5,39C 118.386,41.1485 118.719,42.4818 123.5,43C 122.956,43.7172 122.289,44.2172 121.5,44.5C 119.678,44.1692 118.011,43.5025 116.5,42.5C 115.89,41.609 115.557,40.609 115.5,39.5C 117.033,37.6452 118.7,35.8119 120.5,34C 127.514,29.7187 135.181,28.3853 143.5,30C 153.71,31.6686 159.877,37.5019 162,47.5C 162.667,58.1667 162.667,68.8333 162,79.5C 161.667,79.8333 161.333,80.1667 161,80.5C 159.315,78.9825 157.815,77.3159 156.5,75.5C 154.929,74.6906 153.262,74.3573 151.5,74.5 Z"/></g>
<g><path style="opacity:0.125" fill="#9c9c9c" d="M 221.5,53.5 C 222.906,53.9731 223.573,54.9731 223.5,56.5C 222.094,56.0269 221.427,55.0269 221.5,53.5 Z"/></g>
<g><path style="opacity:1" fill="#1d1d1d" d="M 199.5,54.5 C 199.783,55.2891 200.283,55.9558 201,56.5C 205.438,51.9784 207.272,52.6451 206.5,58.5C 204.994,59.2301 203.66,59.5634 202.5,59.5C 203.531,60.7003 204.365,62.0337 205,63.5C 205.399,63.2716 205.565,62.9382 205.5,62.5C 206.692,63.5659 206.359,64.3992 204.5,65C 205.352,66.7284 206.352,66.895 207.5,65.5C 207.5,66.1667 207.5,66.8333 207.5,67.5C 205.549,67.7733 204.049,67.1066 203,65.5C 202.374,67.9913 201.541,67.9913 200.5,65.5C 199.304,65.8457 199.304,66.3457 200.5,67C 197.007,67.9419 193.674,69.2752 190.5,71C 191.167,71.3333 191.833,71.6667 192.5,72C 189.577,74.0455 186.743,76.2121 184,78.5C 183.043,76.2908 181.876,76.4575 180.5,79C 181.731,80.1827 181.731,81.3493 180.5,82.5C 177.803,83.1693 175.137,83.8359 172.5,84.5C 171.378,83.0527 169.878,82.0527 168,81.5C 167.536,80.9056 167.369,80.2389 167.5,79.5C 167.338,77.4727 167.505,75.4727 168,73.5C 168.667,74.1667 169.333,74.8333 170,75.5C 171.642,71.8279 172.809,67.9946 173.5,64C 174.784,63.3162 175.951,63.4829 177,64.5C 181.819,61.3465 185.986,57.5132 189.5,53C 191.108,52.342 192.275,52.842 193,54.5C 194.587,53.273 195.921,53.6063 197,55.5C 197.671,54.7476 198.504,54.4142 199.5,54.5 Z"/></g>
<g><path style="opacity:1" fill="#7e4814" d="M 108.5,39.5 C 109.5,39.5 110.5,39.5 111.5,39.5C 112.167,39.5 112.833,39.5 113.5,39.5C 114.167,39.5 114.833,39.5 115.5,39.5C 115.557,40.609 115.89,41.609 116.5,42.5C 118.011,43.5025 119.678,44.1692 121.5,44.5C 121.5,45.1667 121.833,45.5 122.5,45.5C 121.986,47.3664 121.32,49.1997 120.5,51C 120.833,51.5 121.167,52 121.5,52.5C 122.865,51.1931 124.198,51.1931 125.5,52.5C 123.925,54.1137 123.259,56.1137 123.5,58.5C 122.319,61.3623 122.319,64.3623 123.5,67.5C 121.435,67.4828 119.435,67.1495 117.5,66.5C 117.5,64.8333 117.5,63.1667 117.5,61.5C 115.833,61.5 114.167,61.5 112.5,61.5C 111.037,58.7974 110.204,55.7974 110,52.5C 107.358,49.9712 104.192,48.9712 100.5,49.5C 95.9849,47.7206 91.3182,47.2206 86.5,48C 83.921,49.0757 82.2543,50.909 81.5,53.5C 81.1667,53.5 80.8333,53.5 80.5,53.5C 80.5,52.1667 80.5,50.8333 80.5,49.5C 82.5274,47.8196 84.8608,46.6529 87.5,46C 92.6576,45.352 97.6576,45.6854 102.5,47C 101.5,46 100.5,45 99.5,44C 103.807,43.1339 104.14,42.1339 100.5,41C 103.365,40.8171 106.031,40.3171 108.5,39.5 Z"/></g>
<g><path style="opacity:1" fill="#c38f5a" d="M 116.5,42.5 C 115.604,45.0692 113.938,47.0692 111.5,48.5C 113.339,50.5271 113.839,52.8604 113,55.5C 112.562,51.4332 110.395,48.9332 106.5,48C 109.727,45.8882 113.06,44.0549 116.5,42.5 Z"/></g>
<g><path style="opacity:1" fill="#fabe87" d="M 158.5,47.5 C 158.945,59.1132 154.278,67.9465 144.5,74C 139.796,74.6477 135.129,74.481 130.5,73.5C 128.192,71.5293 125.858,69.5293 123.5,67.5C 122.319,64.3623 122.319,61.3623 123.5,58.5C 131.234,60.4847 138.234,58.818 144.5,53.5C 146.079,49.9706 147.413,46.3039 148.5,42.5C 148.253,41.2867 147.586,40.62 146.5,40.5C 146.783,39.7109 147.283,39.0442 148,38.5C 150.545,39.5218 153.045,40.6884 155.5,42C 157.16,43.4877 158.16,45.321 158.5,47.5 Z"/></g>
<g><path style="opacity:1" fill="#f9eed1" d="M 84.5,70.5 C 83.4222,67.5979 82.7556,64.5979 82.5,61.5C 83.038,59.8828 83.3713,58.2161 83.5,56.5C 87.4659,55.8379 91.4659,55.5045 95.5,55.5C 95.665,58.8499 95.4983,62.1832 95,65.5C 92.7592,68.2272 90.0926,68.8938 87,67.5C 86.6232,68.9423 85.7899,69.9423 84.5,70.5 Z"/></g>
<g><path style="opacity:1" fill="#c87e4e" d="M 158.5,47.5 C 160.333,58.3286 156.999,67.3286 148.5,74.5C 147.833,74.8333 147.167,75.1667 146.5,75.5C 141.879,76.709 137.213,76.709 132.5,75.5C 131.833,75.1667 131.167,74.8333 130.5,74.5C 130.5,74.1667 130.5,73.8333 130.5,73.5C 135.129,74.481 139.796,74.6477 144.5,74C 154.278,67.9465 158.945,59.1132 158.5,47.5 Z"/></g>
<g><path style="opacity:1" fill="#d78c42" d="M 112.5,61.5 C 114.167,61.5 115.833,61.5 117.5,61.5C 117.5,63.1667 117.5,64.8333 117.5,66.5C 116.305,68.7513 115.305,71.0846 114.5,73.5C 112.605,74.973 110.939,76.6397 109.5,78.5C 109.631,77.7611 109.464,77.0944 109,76.5C 107.428,78.5628 105.595,79.2294 103.5,78.5C 104.914,77.376 106.414,76.376 108,75.5C 106.445,69.7853 107.945,65.1186 112.5,61.5 Z"/></g>
<g><path style="opacity:1" fill="#f4d8aa" d="M 86.5,74.5 C 85.3263,73.4863 84.6596,72.153 84.5,70.5C 85.7899,69.9423 86.6232,68.9423 87,67.5C 90.0926,68.8938 92.7592,68.2272 95,65.5C 95.4983,62.1832 95.665,58.8499 95.5,55.5C 91.4659,55.5045 87.4659,55.8379 83.5,56.5C 83.3713,58.2161 83.038,59.8828 82.5,61.5C 80.9605,59.1617 80.2938,56.4951 80.5,53.5C 80.8333,53.5 81.1667,53.5 81.5,53.5C 83.1002,54.512 84.4335,54.012 85.5,52C 99.9643,50.7623 103.298,56.2623 95.5,68.5C 92.4645,70.5517 89.4645,72.5517 86.5,74.5 Z"/></g>
<g><path style="opacity:0.518" fill="#7c7c7c" d="M 227.5,66.5 C 229.072,69.2154 230.072,72.2154 230.5,75.5C 228.528,72.9164 227.528,69.9164 227.5,66.5 Z"/></g>
<g><path style="opacity:1" fill="#121111" d="M 214.5,42.5 C 215.167,42.5 215.5,42.8333 215.5,43.5C 215.427,45.0269 216.094,46.0269 217.5,46.5C 219.588,48.3356 220.921,50.6689 221.5,53.5C 221.427,55.0269 222.094,56.0269 223.5,56.5C 225.384,59.6035 226.718,62.9368 227.5,66.5C 227.528,69.9164 228.528,72.9164 230.5,75.5C 230.5,76.1667 230.5,76.8333 230.5,77.5C 230.631,78.2389 230.464,78.9056 230,79.5C 229,77.1667 228,74.8333 227,72.5C 225.274,76.8589 225.44,81.1922 227.5,85.5C 228.192,84.9747 228.692,84.3081 229,83.5C 229.167,84 229.333,84.5 229.5,85C 227.914,91.6449 226.248,98.3115 224.5,105C 224.735,105.873 225.069,106.707 225.5,107.5C 222.641,117.244 219.474,126.911 216,136.5C 213.283,139.71 210.783,143.044 208.5,146.5C 208.762,147.978 208.429,149.311 207.5,150.5C 203.85,153.179 200.85,156.512 198.5,160.5C 191.885,163.172 185.552,167.005 179.5,172C 178.207,172.49 176.873,172.657 175.5,172.5C 175.5,173.5 175.5,174.5 175.5,175.5C 173.801,175.34 172.134,175.506 170.5,176C 171.738,176.69 171.738,177.19 170.5,177.5C 169.508,177.672 168.842,177.338 168.5,176.5C 173.489,171.481 179.489,167.647 186.5,165C 187.219,162.444 188.886,161.277 191.5,161.5C 191.281,160.325 191.614,159.325 192.5,158.5C 200.63,152.204 207.13,144.538 212,135.5C 214.211,130.176 216.544,124.842 219,119.5C 220.726,113.968 221.726,108.301 222,102.5C 223.38,101.744 223.547,101.078 222.5,100.5C 222.318,98.4086 222.652,96.4086 223.5,94.5C 222.469,93.2997 221.635,91.9663 221,90.5C 220.722,91.4158 220.222,92.0825 219.5,92.5C 218.208,89.3296 216.542,88.9962 214.5,91.5C 213.893,91.3764 213.56,91.0431 213.5,90.5C 214.975,88.5905 216.975,87.4238 219.5,87C 220.397,82.5789 219.564,78.4123 217,74.5C 215.776,77.473 213.776,78.1397 211,76.5C 210.846,78.7045 211.512,80.7045 213,82.5C 217.179,78.1731 219.012,79.1731 218.5,85.5C 216.585,85.2155 214.919,85.5489 213.5,86.5C 212.778,86.0825 212.278,85.4158 212,84.5C 211.395,86.4812 210.395,86.8146 209,85.5C 208.308,86.0253 207.808,86.6919 207.5,87.5C 208.811,88.2575 209.311,89.2575 209,90.5C 207.951,89.4829 206.784,89.3162 205.5,90C 200.861,93.9291 195.861,97.0958 190.5,99.5C 190.778,101.346 190.111,102.68 188.5,103.5C 186.282,102.076 184.782,100.076 184,97.5C 184.526,103.448 184.526,109.448 184,115.5C 180.737,120.9 176.237,125.4 170.5,129C 171.167,129.333 171.833,129.667 172.5,130C 168.565,133.146 164.231,134.313 159.5,133.5C 169.395,129.106 176.895,122.106 182,112.5C 183.842,108.185 183.842,103.852 182,99.5C 179.775,94.4469 176.608,90.1135 172.5,86.5C 172.5,85.8333 172.5,85.1667 172.5,84.5C 175.137,83.8359 177.803,83.1693 180.5,82.5C 181.731,81.3493 181.731,80.1827 180.5,79C 181.876,76.4575 183.043,76.2908 184,78.5C 186.743,76.2121 189.577,74.0455 192.5,72C 191.833,71.6667 191.167,71.3333 190.5,71C 193.674,69.2752 197.007,67.9419 200.5,67C 199.304,66.3457 199.304,65.8457 200.5,65.5C 201.541,67.9913 202.374,67.9913 203,65.5C 204.049,67.1066 205.549,67.7733 207.5,67.5C 207.504,69.8421 208.337,71.8421 210,73.5C 209.578,70.9023 209.578,68.2356 210,65.5C 210.956,68.3771 212.289,71.0438 214,73.5C 216.899,67.8966 215.399,64.3966 209.5,63C 208.619,63.7083 207.953,64.5416 207.5,65.5C 206.352,66.895 205.352,66.7284 204.5,65C 206.359,64.3992 206.692,63.5659 205.5,62.5C 207.54,61.454 208.873,59.7873 209.5,57.5C 208.582,54.5943 207.249,51.9276 205.5,49.5C 205.511,47.9826 206.177,46.8159 207.5,46C 207.167,45.6667 206.833,45.3333 206.5,45C 207.744,44.5439 208.577,45.0439 209,46.5C 210.017,43.972 211.184,43.972 212.5,46.5C 213.172,45.0154 212.506,43.8487 210.5,43C 211.682,41.2317 213.015,41.0651 214.5,42.5 Z"/></g>
<g><path style="opacity:1" fill="#c8c8c8" d="M 207.5,67.5 C 207.5,66.8333 207.5,66.1667 207.5,65.5C 207.953,64.5416 208.619,63.7083 209.5,63C 215.399,64.3966 216.899,67.8966 214,73.5C 212.289,71.0438 210.956,68.3771 210,65.5C 209.578,68.2356 209.578,70.9023 210,73.5C 208.337,71.8421 207.504,69.8421 207.5,67.5 Z"/></g>
<g><path style="opacity:1" fill="#121212" d="M 211.5,66.5 C 212.077,65.2267 212.743,65.2267 213.5,66.5C 214.428,67.7678 214.595,69.1011 214,70.5C 213.066,69.1416 212.232,67.8083 211.5,66.5 Z"/></g>
<g><path style="opacity:1" fill="#873c18" d="M 117.5,66.5 C 119.435,67.1495 121.435,67.4828 123.5,67.5C 125.858,69.5293 128.192,71.5293 130.5,73.5C 130.5,73.8333 130.5,74.1667 130.5,74.5C 129.508,74.3284 128.842,74.6618 128.5,75.5C 124.608,77.0621 121.275,79.3954 118.5,82.5C 117.167,82.5 115.833,82.5 114.5,82.5C 114.167,82.5 113.833,82.5 113.5,82.5C 113.5,81.8333 113.5,81.1667 113.5,80.5C 113.448,78.0971 113.781,75.7638 114.5,73.5C 115.305,71.0846 116.305,68.7513 117.5,66.5 Z"/></g>
<g><path style="opacity:1" fill="#e6a95b" d="M 100.5,49.5 C 104.192,48.9712 107.358,49.9712 110,52.5C 110.204,55.7974 111.037,58.7974 112.5,61.5C 107.945,65.1186 106.445,69.7853 108,75.5C 106.414,76.376 104.914,77.376 103.5,78.5C 105.595,79.2294 107.428,78.5628 109,76.5C 109.464,77.0944 109.631,77.7611 109.5,78.5C 106.082,80.8693 102.415,82.8693 98.5,84.5C 100.851,86.2289 103.518,86.8956 106.5,86.5C 104.489,87.8929 102.155,88.5596 99.5,88.5C 96.8236,88.163 94.157,87.8297 91.5,87.5C 91.5,86.1667 90.8333,85.5 89.5,85.5C 89.1667,84.8333 88.8333,84.1667 88.5,83.5C 91.0489,82.1687 90.7155,81.1687 87.5,80.5C 87.5,79.8333 87.5,79.1667 87.5,78.5C 88.1577,77.6016 88.8243,76.6016 89.5,75.5C 93.5833,74.8515 97.4167,73.5182 101,71.5C 101.667,70.1667 102.333,68.8333 103,67.5C 103.499,62.5111 103.666,57.5111 103.5,52.5C 102.5,52.5 101.5,52.5 100.5,52.5C 100.5,51.5 100.5,50.5 100.5,49.5 Z"/></g>
<g><path style="opacity:1" fill="#d1d1d1" d="M 213.5,90.5 C 213.5,89.1667 213.5,87.8333 213.5,86.5C 214.919,85.5489 216.585,85.2155 218.5,85.5C 219.012,79.1731 217.179,78.1731 213,82.5C 211.512,80.7045 210.846,78.7045 211,76.5C 213.776,78.1397 215.776,77.473 217,74.5C 219.564,78.4123 220.397,82.5789 219.5,87C 216.975,87.4238 214.975,88.5905 213.5,90.5 Z"/></g>
<g><path style="opacity:1" fill="#cccccc" d="M 34.5,70.5 C 35.5,70.5 36.5,70.5 37.5,70.5C 36.9292,73.4769 35.9292,76.3103 34.5,79C 35.635,79.7494 36.635,79.5827 37.5,78.5C 38.2357,76.4595 39.0691,74.4595 40,72.5C 40.4623,76.9087 38.7957,80.242 35,82.5C 32.7095,81.8759 31.5428,80.3759 31.5,78C 32.093,75.3173 33.093,72.8173 34.5,70.5 Z"/></g>
<g><path style="opacity:1" fill="#b06f30" d="M 114.5,73.5 C 113.781,75.7638 113.448,78.0971 113.5,80.5C 111.167,82.5 108.833,84.5 106.5,86.5C 103.518,86.8956 100.851,86.2289 98.5,84.5C 102.415,82.8693 106.082,80.8693 109.5,78.5C 110.939,76.6397 112.605,74.973 114.5,73.5 Z"/></g>
<g><path style="opacity:1" fill="#fbf0da" d="M 128.5,75.5 C 129.485,79.6344 129.818,83.9677 129.5,88.5C 129.167,88.5 128.833,88.5 128.5,88.5C 126.798,85.4746 124.131,84.1413 120.5,84.5C 119.833,83.8333 119.167,83.1667 118.5,82.5C 121.275,79.3954 124.608,77.0621 128.5,75.5 Z"/></g>
<g><path style="opacity:1" fill="#424242" d="M 94.5,8.5 C 90.484,11.2721 86.1507,13.6054 81.5,15.5C 80.914,15.2907 80.414,14.9574 80,14.5C 79.6232,15.9423 78.7899,16.9423 77.5,17.5C 76.391,17.5569 75.391,17.8902 74.5,18.5C 72.9468,20.385 70.9468,21.385 68.5,21.5C 68.9923,25.2896 68.159,25.9563 66,23.5C 47.5973,34.4716 34.9306,49.1383 28,67.5C 25.8416,73.7174 24.3416,79.7174 23.5,85.5C 22.7109,85.7828 22.0442,86.2828 21.5,87C 20.8375,95.386 21.5042,103.719 23.5,112C 21.1725,111.196 18.8391,111.363 16.5,112.5C 13.2728,97.4605 14.2728,82.7938 19.5,68.5C 19.4701,69.4972 19.9701,70.1639 21,70.5C 25.3031,66.412 27.4698,61.5786 27.5,56C 34.9768,47.9589 42.1435,39.4589 49,30.5C 50.0674,29.8095 51.2341,29.3095 52.5,29C 57.317,23.4186 63.317,19.5852 70.5,17.5C 71.2868,16.7579 71.9535,15.9246 72.5,15C 79.7103,13.3299 86.5437,10.8299 93,7.5C 93.7648,7.56993 94.2648,7.90326 94.5,8.5 Z"/></g>
<g><path style="opacity:1" fill="#382a0f" d="M 77.5,82.5 C 75.1401,84.8532 72.4735,86.8532 69.5,88.5C 70.9081,85.0996 73.5747,83.0996 77.5,82.5 Z"/></g>
<g><path style="opacity:1" fill="#faefe8" d="M 151.5,75.5 C 158.194,78.8611 163.194,83.8611 166.5,90.5C 167.625,91.6522 167.625,92.6522 166.5,93.5C 162.931,92.8111 159.431,91.8111 156,90.5C 151.352,93.6507 146.852,96.984 142.5,100.5C 141.427,99.7494 141.26,98.7494 142,97.5C 148.126,91.2005 151.292,83.8672 151.5,75.5 Z"/></g>
<g><path style="opacity:1" fill="#040203" d="M 213.5,86.5 C 213.5,87.8333 213.5,89.1667 213.5,90.5C 213.56,91.0431 213.893,91.3764 214.5,91.5C 216.542,88.9962 218.208,89.3296 219.5,92.5C 214.333,93.7436 213.166,96.7436 216,101.5C 216.495,99.5273 216.662,97.5273 216.5,95.5C 218.167,95.5 219.833,95.5 221.5,95.5C 221.216,97.4147 221.549,99.0813 222.5,100.5C 223.547,101.078 223.38,101.744 222,102.5C 221.726,108.301 220.726,113.968 219,119.5C 216.544,124.842 214.211,130.176 212,135.5C 207.13,144.538 200.63,152.204 192.5,158.5C 191.614,159.325 191.281,160.325 191.5,161.5C 188.886,161.277 187.219,162.444 186.5,165C 179.489,167.647 173.489,171.481 168.5,176.5C 166.694,177.024 165.028,177.691 163.5,178.5C 143.525,184.536 123.192,186.036 102.5,183C 103.34,181.334 102.84,181.167 101,182.5C 100.081,180.761 98.9145,180.094 97.5,180.5C 96.4975,178.989 95.8308,177.322 95.5,175.5C 98.4206,175.717 101.087,175.051 103.5,173.5C 104.688,174.684 105.855,174.684 107,173.5C 107.278,174.416 107.778,175.082 108.5,175.5C 109.5,175.5 110.5,175.5 111.5,175.5C 111.5,174.5 111.5,173.5 111.5,172.5C 111.649,171.448 111.483,170.448 111,169.5C 109.951,171.107 108.451,171.773 106.5,171.5C 106.806,168.722 107.806,166.222 109.5,164C 109.333,163.167 109.167,162.333 109,161.5C 105.027,165.756 101.527,165.422 98.5,160.5C 101.525,159.571 104.358,158.238 107,156.5C 107.483,157.448 107.649,158.448 107.5,159.5C 109.492,159.672 111.158,159.005 112.5,157.5C 113.812,158.46 115.146,158.294 116.5,157C 115.584,156.722 114.918,156.222 114.5,155.5C 117.228,155.829 119.562,155.163 121.5,153.5C 122.598,152.603 122.598,151.77 121.5,151C 122.094,150.536 122.761,150.369 123.5,150.5C 123.579,151.93 123.246,153.264 122.5,154.5C 124.167,155.833 125.833,155.833 127.5,154.5C 126.933,152.018 126.266,149.684 125.5,147.5C 124.5,147.5 123.5,147.5 122.5,147.5C 123.833,146.833 125.167,146.167 126.5,145.5C 126.5,145.167 126.5,144.833 126.5,144.5C 129.1,142.587 132.1,141.42 135.5,141C 141.499,139.656 147.499,139.323 153.5,140C 155.758,138.247 157.425,136.081 158.5,133.5C 158.833,133.5 159.167,133.5 159.5,133.5C 164.231,134.313 168.565,133.146 172.5,130C 171.833,129.667 171.167,129.333 170.5,129C 176.237,125.4 180.737,120.9 184,115.5C 184.526,109.448 184.526,103.448 184,97.5C 184.782,100.076 186.282,102.076 188.5,103.5C 190.111,102.68 190.778,101.346 190.5,99.5C 195.861,97.0958 200.861,93.9291 205.5,90C 206.784,89.3162 207.951,89.4829 209,90.5C 209.311,89.2575 208.811,88.2575 207.5,87.5C 207.808,86.6919 208.308,86.0253 209,85.5C 210.395,86.8146 211.395,86.4812 212,84.5C 212.278,85.4158 212.778,86.0825 213.5,86.5 Z"/></g>
<g><path style="opacity:1" fill="#866424" d="M 114.5,82.5 C 115.833,82.5 117.167,82.5 118.5,82.5C 119.167,83.1667 119.833,83.8333 120.5,84.5C 117.954,85.9787 117.954,87.4787 120.5,89C 116.731,89.7655 116.898,90.5988 121,91.5C 121.95,90.9777 122.784,90.311 123.5,89.5C 124.506,89.9377 124.506,90.6043 123.5,91.5C 119.088,92.6224 114.755,93.7891 110.5,95C 112.805,96.6264 114.805,98.4598 116.5,100.5C 114.394,103.055 112.06,105.388 109.5,107.5C 108.38,108.833 107.047,109.333 105.5,109C 108.732,105.076 109.899,100.576 109,95.5C 108.107,96.7112 107.274,96.7112 106.5,95.5C 109.912,91.5577 112.578,87.2244 114.5,82.5 Z"/></g>
<g><path style="opacity:1" fill="#efb186" d="M 128.5,75.5 C 128.842,74.6618 129.508,74.3284 130.5,74.5C 131.167,74.8333 131.833,75.1667 132.5,75.5C 130.743,82.3307 133.076,84.6641 139.5,82.5C 141.762,83.4669 144.095,84.1336 146.5,84.5C 146.5,81.5 146.5,78.5 146.5,75.5C 147.167,75.1667 147.833,74.8333 148.5,74.5C 148.797,78.7675 148.464,82.9341 147.5,87C 146.584,87.3742 145.75,87.8742 145,88.5C 139.62,87.4167 134.453,87.4167 129.5,88.5C 129.818,83.9677 129.485,79.6344 128.5,75.5 Z"/></g>
<g><path style="opacity:1" fill="#fa9f6a" d="M 132.5,75.5 C 137.213,76.709 141.879,76.709 146.5,75.5C 146.5,78.5 146.5,81.5 146.5,84.5C 144.095,84.1336 141.762,83.4669 139.5,82.5C 133.076,84.6641 130.743,82.3307 132.5,75.5 Z"/></g>
<g><path style="opacity:0.986" fill="#292929" d="M 230.5,77.5 C 233.806,88.669 234.139,100.002 231.5,111.5C 230.732,112.263 230.232,113.263 230,114.5C 229.07,112.034 228.237,112.201 227.5,115C 228.707,116.3 229.374,117.8 229.5,119.5C 228.25,119.423 227.417,118.756 227,117.5C 226.25,118.126 225.416,118.626 224.5,119C 224.411,120.716 224.744,122.549 225.5,124.5C 223.181,126.251 221.181,128.917 219.5,132.5C 219.938,133.506 220.604,133.506 221.5,132.5C 222.425,133.357 223.092,134.357 223.5,135.5C 221.983,135.511 220.816,136.177 220,137.5C 219.667,136.833 219.333,136.167 219,135.5C 217.853,137.731 216.853,140.065 216,142.5C 215.667,142.167 215.333,141.833 215,141.5C 213.839,143.916 212.172,145.916 210,147.5C 209.617,146.944 209.117,146.611 208.5,146.5C 210.783,143.044 213.283,139.71 216,136.5C 219.474,126.911 222.641,117.244 225.5,107.5C 225.069,106.707 224.735,105.873 224.5,105C 226.248,98.3115 227.914,91.6449 229.5,85C 229.333,84.5 229.167,84 229,83.5C 228.692,84.3081 228.192,84.9747 227.5,85.5C 225.44,81.1922 225.274,76.8589 227,72.5C 228,74.8333 229,77.1667 230,79.5C 230.464,78.9056 230.631,78.2389 230.5,77.5 Z"/></g>
<g><path style="opacity:1" fill="#c5b494" d="M 113.5,80.5 C 113.5,81.1667 113.5,81.8333 113.5,82.5C 110.409,87.0137 107.075,91.347 103.5,95.5C 103.843,93.5168 103.176,92.1834 101.5,91.5C 99.5,91.5 97.5,91.5 95.5,91.5C 94.3281,90.2947 92.9948,90.2947 91.5,91.5C 89.9344,99.0835 89.2678,106.75 89.5,114.5C 89.5,115.167 89.1667,115.5 88.5,115.5C 88.2356,106.454 88.7356,97.4538 90,88.5C 90.3826,87.944 90.8826,87.6107 91.5,87.5C 94.157,87.8297 96.8236,88.163 99.5,88.5C 102.155,88.5596 104.489,87.8929 106.5,86.5C 108.833,84.5 111.167,82.5 113.5,80.5 Z"/></g>
<g><path style="opacity:1" fill="#f6cfa8" d="M 148.5,74.5 C 149.5,74.5 150.5,74.5 151.5,74.5C 151.5,74.8333 151.5,75.1667 151.5,75.5C 151.292,83.8672 148.126,91.2005 142,97.5C 141.26,98.7494 141.427,99.7494 142.5,100.5C 141.738,102.262 140.404,103.262 138.5,103.5C 136.764,97.7588 133.764,92.7588 129.5,88.5C 134.453,87.4167 139.62,87.4167 145,88.5C 145.75,87.8742 146.584,87.3742 147.5,87C 148.464,82.9341 148.797,78.7675 148.5,74.5 Z"/></g>
<g><path style="opacity:1" fill="#eaeaea" d="M 24.5,95.5 C 24.3677,92.4299 24.701,89.4299 25.5,86.5C 26.3781,84.1271 28.0448,83.2938 30.5,84C 31.6023,86.4009 31.769,88.9009 31,91.5C 30.5065,89.8659 30.3398,88.1992 30.5,86.5C 29.1779,86.33 28.0113,86.6634 27,87.5C 26.187,89.4357 25.687,91.4357 25.5,93.5C 27.8845,93.4433 30.2178,93.7766 32.5,94.5C 33.6473,94.1822 34.4806,93.5156 35,92.5C 35.6667,94.8333 35.6667,97.1667 35,99.5C 31.6225,97.8013 28.1225,96.468 24.5,95.5 Z"/></g>
<g><path style="opacity:1" fill="#cfcfcf" d="M 222.5,100.5 C 221.549,99.0813 221.216,97.4147 221.5,95.5C 219.833,95.5 218.167,95.5 216.5,95.5C 216.662,97.5273 216.495,99.5273 216,101.5C 213.166,96.7436 214.333,93.7436 219.5,92.5C 220.222,92.0825 220.722,91.4158 221,90.5C 221.635,91.9663 222.469,93.2997 223.5,94.5C 222.652,96.4086 222.318,98.4086 222.5,100.5 Z"/></g>
<g><path style="opacity:1" fill="#504f4f" d="M 69.5,88.5 C 67.7267,91.0599 65.7267,93.3932 63.5,95.5C 60.2167,99.1064 58.8833,103.44 59.5,108.5C 59.5792,109.93 59.2458,111.264 58.5,112.5C 59.4801,114.951 60.3135,117.284 61,119.5C 56.0318,116.738 52.3651,113.404 50,109.5C 50.1751,111.857 50.3417,114.023 50.5,116C 49.8742,116.75 49.3742,117.584 49,118.5C 46.1347,120.515 42.9681,121.848 39.5,122.5C 39.4386,124.592 38.4386,126.092 36.5,127C 34.444,127.311 32.444,127.811 30.5,128.5C 27.5341,124.233 25.3674,119.567 24,114.5C 22.4126,115.727 21.0793,115.394 20,113.5C 19.338,115.813 18.838,118.146 18.5,120.5C 17.2318,118.095 16.5651,115.428 16.5,112.5C 18.8391,111.363 21.1725,111.196 23.5,112C 21.5042,103.719 20.8375,95.386 21.5,87C 22.0442,86.2828 22.7109,85.7828 23.5,85.5C 23.8417,86.3382 24.5084,86.6716 25.5,86.5C 24.701,89.4299 24.3677,92.4299 24.5,95.5C 23.8761,95.9169 23.5427,96.5836 23.5,97.5C 25.5311,102.738 27.1978,108.071 28.5,113.5C 29.3081,113.192 29.9747,112.692 30.5,112C 29.5243,109.853 29.691,107.686 31,105.5C 31.4226,106.956 32.2559,107.456 33.5,107C 35.3783,105.457 36.8783,103.624 38,101.5C 38.3333,102.167 38.6667,102.833 39,103.5C 42.4301,100.947 45.4301,97.9473 48,94.5C 48.414,94.9574 48.914,95.2907 49.5,95.5C 51.8667,92.6529 54.8667,90.8196 58.5,90C 59.8333,89 59.8333,88 58.5,87C 59.5,86 60.5,85 61.5,84C 62.9621,84.0628 64.2954,84.7295 65.5,86C 63.9632,87.1096 63.2965,88.6096 63.5,90.5C 65.6854,90.2964 67.6854,89.6298 69.5,88.5 Z"/></g>
<g><path style="opacity:1" fill="#6b4e0b" d="M 113.5,82.5 C 113.833,82.5 114.167,82.5 114.5,82.5C 112.578,87.2244 109.912,91.5577 106.5,95.5C 107.274,96.7112 108.107,96.7112 109,95.5C 109.899,100.576 108.732,105.076 105.5,109C 107.047,109.333 108.38,108.833 109.5,107.5C 112.06,105.388 114.394,103.055 116.5,100.5C 117.525,100.103 117.692,99.4368 117,98.5C 115.926,97.3816 114.76,96.3816 113.5,95.5C 116.785,94.6764 120.118,94.1764 123.5,94C 124.715,91.6246 126.381,89.7912 128.5,88.5C 128.833,88.5 129.167,88.5 129.5,88.5C 133.764,92.7588 136.764,97.7588 138.5,103.5C 138.325,105.621 138.659,107.621 139.5,109.5C 140.974,116.582 138.641,121.749 132.5,125C 128.867,126.049 125.201,126.882 121.5,127.5C 111.71,127.989 102.044,127.322 92.5,125.5C 94.6757,121.185 96.0091,116.518 96.5,111.5C 97.5,108.833 98.5,106.167 99.5,103.5C 100.847,100.807 102.18,98.1401 103.5,95.5C 107.075,91.347 110.409,87.0137 113.5,82.5 Z"/></g>
<g><path style="opacity:0.916" fill="#676767" d="M 231.5,111.5 C 231.435,114.428 230.768,117.095 229.5,119.5C 229.374,117.8 228.707,116.3 227.5,115C 228.237,112.201 229.07,112.034 230,114.5C 230.232,113.263 230.732,112.263 231.5,111.5 Z"/></g>
<g><path style="opacity:1" fill="#424242" d="M 59.5,108.5 C 61.2146,113.915 63.8812,118.915 67.5,123.5C 66.6798,125.111 65.3464,125.778 63.5,125.5C 62.9285,127.36 62.9285,129.027 63.5,130.5C 56.2013,135.838 49.2013,141.672 42.5,148C 39.6307,150.225 38.1307,149.392 38,145.5C 37.6667,146.167 37.3333,146.833 37,147.5C 35.3428,145.433 33.6762,144.1 32,143.5C 31.51,144.793 31.3433,146.127 31.5,147.5C 33.3084,147.491 34.9751,147.991 36.5,149C 34.0122,150.685 34.3455,152.019 37.5,153C 36.944,153.383 36.6107,153.883 36.5,154.5C 27.5771,144.859 21.5771,133.526 18.5,120.5C 18.838,118.146 19.338,115.813 20,113.5C 21.0793,115.394 22.4126,115.727 24,114.5C 25.3674,119.567 27.5341,124.233 30.5,128.5C 32.444,127.811 34.444,127.311 36.5,127C 38.4386,126.092 39.4386,124.592 39.5,122.5C 42.9681,121.848 46.1347,120.515 49,118.5C 49.3742,117.584 49.8742,116.75 50.5,116C 50.3417,114.023 50.1751,111.857 50,109.5C 52.3651,113.404 56.0318,116.738 61,119.5C 60.3135,117.284 59.4801,114.951 58.5,112.5C 59.2458,111.264 59.5792,109.93 59.5,108.5 Z"/></g>
<g><path style="opacity:0.942" fill="#505050" d="M 229.5,119.5 C 228.464,125.285 226.464,130.618 223.5,135.5C 223.092,134.357 222.425,133.357 221.5,132.5C 220.604,133.506 219.938,133.506 219.5,132.5C 221.181,128.917 223.181,126.251 225.5,124.5C 224.744,122.549 224.411,120.716 224.5,119C 225.416,118.626 226.25,118.126 227,117.5C 227.417,118.756 228.25,119.423 229.5,119.5 Z"/></g>
<g><path style="opacity:1" fill="#382e20" d="M 63.5,95.5 C 59.1523,108.333 62.4856,118.833 73.5,127C 80.5294,131.35 87.8627,134.85 95.5,137.5C 94.5,137.5 93.5,137.5 92.5,137.5C 88.6824,136.457 85.0158,134.957 81.5,133C 79.5273,132.505 77.5273,132.338 75.5,132.5C 73.8005,130.559 71.6339,129.226 69,128.5C 67.4329,129.856 65.5996,130.523 63.5,130.5C 62.9285,129.027 62.9285,127.36 63.5,125.5C 65.3464,125.778 66.6798,125.111 67.5,123.5C 63.8812,118.915 61.2146,113.915 59.5,108.5C 58.8833,103.44 60.2167,99.1064 63.5,95.5 Z"/></g>
<g><path style="opacity:0.999" fill="#373737" d="M 75.5,132.5 C 75.8807,133.931 76.8807,134.764 78.5,135C 70.6568,133.284 64.6568,135.784 60.5,142.5C 54.6766,145.816 50.51,150.483 48,156.5C 46.0698,158.919 46.4031,160.586 49,161.5C 49.6891,160.643 50.5224,159.977 51.5,159.5C 52.593,161.349 53.9263,163.016 55.5,164.5C 54.5721,165.768 54.4054,167.101 55,168.5C 56.0113,167.663 57.1779,167.33 58.5,167.5C 58.6747,169.621 58.3414,171.621 57.5,173.5C 51.7746,169.954 46.4412,165.787 41.5,161C 39.9456,158.713 38.2789,156.546 36.5,154.5C 36.6107,153.883 36.944,153.383 37.5,153C 34.3455,152.019 34.0122,150.685 36.5,149C 34.9751,147.991 33.3084,147.491 31.5,147.5C 31.3433,146.127 31.51,144.793 32,143.5C 33.6762,144.1 35.3428,145.433 37,147.5C 37.3333,146.833 37.6667,146.167 38,145.5C 38.1307,149.392 39.6307,150.225 42.5,148C 49.2013,141.672 56.2013,135.838 63.5,130.5C 65.5996,130.523 67.4329,129.856 69,128.5C 71.6339,129.226 73.8005,130.559 75.5,132.5 Z"/></g>
<g><path style="opacity:1" fill="#9d8632" d="M 86.5,76.5 C 87.3382,76.8417 87.6716,77.5084 87.5,78.5C 87.5,79.1667 87.5,79.8333 87.5,80.5C 77.0256,84.4708 69.1923,91.4708 64,101.5C 62.8384,107.557 63.8384,113.223 67,118.5C 78.7968,129.979 92.9635,136.479 109.5,138C 130.489,140.116 150.155,136.116 168.5,126C 177.337,120.16 181.17,111.994 180,101.5C 179.576,98.9746 178.41,96.9746 176.5,95.5C 174.57,91.7337 171.736,88.7337 168,86.5C 167.601,86.7284 167.435,87.0618 167.5,87.5C 166.167,86.1667 166.167,84.8333 167.5,83.5C 168.899,84.8897 170.566,85.8897 172.5,86.5C 176.608,90.1135 179.775,94.4469 182,99.5C 183.842,103.852 183.842,108.185 182,112.5C 176.895,122.106 169.395,129.106 159.5,133.5C 159.167,133.5 158.833,133.5 158.5,133.5C 137.994,141.11 116.994,142.443 95.5,137.5C 87.8627,134.85 80.5294,131.35 73.5,127C 62.4856,118.833 59.1523,108.333 63.5,95.5C 65.7267,93.3932 67.7267,91.0599 69.5,88.5C 72.4735,86.8532 75.1401,84.8532 77.5,82.5C 81.4376,81.7119 84.4376,79.7119 86.5,76.5 Z"/></g>
<g><path style="opacity:1" fill="#735211" d="M 89.5,85.5 C 90.8333,85.5 91.5,86.1667 91.5,87.5C 90.8826,87.6107 90.3826,87.944 90,88.5C 88.7356,97.4538 88.2356,106.454 88.5,115.5C 87.2329,118.061 87.2329,120.728 88.5,123.5C 82.8168,121.836 78.4835,118.502 75.5,113.5C 73.6903,109.69 73.1903,105.69 74,101.5C 76.0906,98.2595 77.9239,94.9262 79.5,91.5C 82.8413,89.4967 86.1747,87.4967 89.5,85.5 Z"/></g>
<g><path style="opacity:1" fill="#9a1b15" d="M 166.5,93.5 C 165.903,94.1386 165.07,94.472 164,94.5C 160.655,92.8589 157.155,92.3589 153.5,93C 149.938,96.7316 146.271,100.232 142.5,103.5C 141.227,106.901 142.56,108.234 146.5,107.5C 150.842,107.261 155.176,106.927 159.5,106.5C 159.5,106.833 159.5,107.167 159.5,107.5C 152.88,108.603 146.214,109.27 139.5,109.5C 138.659,107.621 138.325,105.621 138.5,103.5C 140.404,103.262 141.738,102.262 142.5,100.5C 146.852,96.984 151.352,93.6507 156,90.5C 159.431,91.8111 162.931,92.8111 166.5,93.5 Z"/></g>
<g><path style="opacity:1" fill="#f20b0b" d="M 146.5,107.5 C 142.56,108.234 141.227,106.901 142.5,103.5C 147.152,100.522 151.819,97.5218 156.5,94.5C 161.005,96.8121 165.671,97.1454 170.5,95.5C 170.945,98.3646 170.278,100.865 168.5,103C 160.922,103.948 153.589,105.448 146.5,107.5 Z"/></g>
<g><path style="opacity:1" fill="#1659ca" d="M 94.5,93.5 C 97.0821,93.0254 99.0821,93.6921 100.5,95.5C 98.9493,97.9128 98.2826,100.579 98.5,103.5C 98.1667,103.5 97.8333,103.5 97.5,103.5C 96.8826,103.611 96.3826,103.944 96,104.5C 95.3923,102.846 94.8923,101.179 94.5,99.5C 94.5,97.5 94.5,95.5 94.5,93.5 Z"/></g>
<g><path style="opacity:1" fill="#f9ebb0" d="M 79.5,91.5 C 77.9239,94.9262 76.0906,98.2595 74,101.5C 73.1903,105.69 73.6903,109.69 75.5,113.5C 73.7538,112.751 72.7538,111.417 72.5,109.5C 69.8833,101.421 72.2167,95.4212 79.5,91.5 Z"/></g>
<g><path style="opacity:1" fill="#b4c7d3" d="M 95.5,91.5 C 95.1667,92.1667 94.8333,92.8333 94.5,93.5C 94.5,95.5 94.5,97.5 94.5,99.5C 92.4133,103.49 91.0799,107.823 90.5,112.5C 91.8333,112.5 93.1667,112.5 94.5,112.5C 94.1667,113.167 93.8333,113.833 93.5,114.5C 92.1667,114.5 90.8333,114.5 89.5,114.5C 89.2678,106.75 89.9344,99.0835 91.5,91.5C 92.9948,90.2947 94.3281,90.2947 95.5,91.5 Z"/></g>
<g><path style="opacity:1" fill="#b69124" d="M 88.5,83.5 C 88.8333,84.1667 89.1667,84.8333 89.5,85.5C 86.1747,87.4967 82.8413,89.4967 79.5,91.5C 72.2167,95.4212 69.8833,101.421 72.5,109.5C 72.7538,111.417 73.7538,112.751 75.5,113.5C 78.4835,118.502 82.8168,121.836 88.5,123.5C 88.5,124.167 88.5,124.833 88.5,125.5C 81.3588,122.521 75.1921,118.188 70,112.5C 65.6289,102.937 67.7955,95.1039 76.5,89C 80.4413,86.8543 84.4413,85.021 88.5,83.5 Z"/></g>
<g><path style="opacity:1" fill="#d0dde7" d="M 101.5,91.5 C 103.176,92.1834 103.843,93.5168 103.5,95.5C 102.18,98.1401 100.847,100.807 99.5,103.5C 99.1667,103.5 98.8333,103.5 98.5,103.5C 98.2826,100.579 98.9493,97.9128 100.5,95.5C 101.434,94.4324 101.768,93.099 101.5,91.5 Z"/></g>
<g><path style="opacity:1" fill="#ba150f" d="M 168.5,89.5 C 172.497,92.5042 174.83,96.5042 175.5,101.5C 174.833,102.5 174.167,103.5 173.5,104.5C 168.799,104.957 164.132,105.624 159.5,106.5C 155.176,106.927 150.842,107.261 146.5,107.5C 153.589,105.448 160.922,103.948 168.5,103C 170.278,100.865 170.945,98.3646 170.5,95.5C 165.671,97.1454 161.005,96.8121 156.5,94.5C 151.819,97.5218 147.152,100.522 142.5,103.5C 146.271,100.232 149.938,96.7316 153.5,93C 157.155,92.3589 160.655,92.8589 164,94.5C 165.07,94.472 165.903,94.1386 166.5,93.5C 167.625,92.6522 167.625,91.6522 166.5,90.5C 167.167,90.1667 167.833,89.8333 168.5,89.5 Z"/></g>
<g><path style="opacity:1" fill="#f8da7c" d="M 176.5,95.5 C 176.5,97.5 176.5,99.5 176.5,101.5C 176.167,101.5 175.833,101.5 175.5,101.5C 174.83,96.5042 172.497,92.5042 168.5,89.5C 168.167,88.8333 167.833,88.1667 167.5,87.5C 167.435,87.0618 167.601,86.7284 168,86.5C 171.736,88.7337 174.57,91.7337 176.5,95.5 Z"/></g>
<g><path style="opacity:1" fill="#5f7ead" d="M 95.5,91.5 C 97.5,91.5 99.5,91.5 101.5,91.5C 101.768,93.099 101.434,94.4324 100.5,95.5C 99.0821,93.6921 97.0821,93.0254 94.5,93.5C 94.8333,92.8333 95.1667,92.1667 95.5,91.5 Z"/></g>
<g><path style="opacity:1" fill="#a48546" d="M 120.5,84.5 C 124.131,84.1413 126.798,85.4746 128.5,88.5C 126.381,89.7912 124.715,91.6246 123.5,94C 120.118,94.1764 116.785,94.6764 113.5,95.5C 114.76,96.3816 115.926,97.3816 117,98.5C 117.692,99.4368 117.525,100.103 116.5,100.5C 114.805,98.4598 112.805,96.6264 110.5,95C 114.755,93.7891 119.088,92.6224 123.5,91.5C 124.506,90.6043 124.506,89.9377 123.5,89.5C 122.784,90.311 121.95,90.9777 121,91.5C 116.898,90.5988 116.731,89.7655 120.5,89C 117.954,87.4787 117.954,85.9787 120.5,84.5 Z"/></g>
<g><path style="opacity:1" fill="#faf36d" d="M 87.5,80.5 C 90.7155,81.1687 91.0489,82.1687 88.5,83.5C 84.4413,85.021 80.4413,86.8543 76.5,89C 67.7955,95.1039 65.6289,102.937 70,112.5C 75.1921,118.188 81.3588,122.521 88.5,125.5C 89.1667,125.5 89.8333,125.5 90.5,125.5C 93.4216,127.531 96.7549,128.698 100.5,129C 114.83,130.976 129.164,130.976 143.5,129C 145.852,128.76 147.852,127.927 149.5,126.5C 161.779,124.946 170.612,118.613 176,107.5C 176.495,105.527 176.662,103.527 176.5,101.5C 176.5,99.5 176.5,97.5 176.5,95.5C 178.41,96.9746 179.576,98.9746 180,101.5C 181.17,111.994 177.337,120.16 168.5,126C 150.155,136.116 130.489,140.116 109.5,138C 92.9635,136.479 78.7968,129.979 67,118.5C 63.8384,113.223 62.8384,107.557 64,101.5C 69.1923,91.4708 77.0256,84.4708 87.5,80.5 Z"/></g>
<g><path style="opacity:1" fill="#a78b29" d="M 90.5,125.5 C 91.1667,125.5 91.8333,125.5 92.5,125.5C 102.044,127.322 111.71,127.989 121.5,127.5C 122.514,128.765 124.014,129.431 126,129.5C 133.859,128.622 141.692,127.622 149.5,126.5C 147.852,127.927 145.852,128.76 143.5,129C 129.164,130.976 114.83,130.976 100.5,129C 96.7549,128.698 93.4216,127.531 90.5,125.5 Z"/></g>
<g><path style="opacity:1" fill="#555f43" d="M 95.5,111.5 C 95.8333,111.5 96.1667,111.5 96.5,111.5C 96.0091,116.518 94.6757,121.185 92.5,125.5C 91.8333,125.5 91.1667,125.5 90.5,125.5C 89.8333,125.5 89.1667,125.5 88.5,125.5C 88.5,124.833 88.5,124.167 88.5,123.5C 87.2329,120.728 87.2329,118.061 88.5,115.5C 88.2924,117.92 88.6258,120.253 89.5,122.5C 90.6888,123.429 92.0222,123.762 93.5,123.5C 93.5,120.5 93.5,117.5 93.5,114.5C 93.8333,113.833 94.1667,113.167 94.5,112.5C 95.1667,112.5 95.5,112.167 95.5,111.5 Z"/></g>
<g><path style="opacity:1" fill="#3c7d94" d="M 89.5,114.5 C 90.8333,114.5 92.1667,114.5 93.5,114.5C 93.5,117.5 93.5,120.5 93.5,123.5C 92.0222,123.762 90.6888,123.429 89.5,122.5C 88.6258,120.253 88.2924,117.92 88.5,115.5C 89.1667,115.5 89.5,115.167 89.5,114.5 Z"/></g>
<g><path style="opacity:1" fill="#9e8431" d="M 175.5,101.5 C 175.833,101.5 176.167,101.5 176.5,101.5C 176.662,103.527 176.495,105.527 176,107.5C 170.612,118.613 161.779,124.946 149.5,126.5C 155.897,123.797 161.897,120.297 167.5,116C 170.411,113.01 172.411,109.51 173.5,105.5C 173.5,105.167 173.5,104.833 173.5,104.5C 174.167,103.5 174.833,102.5 175.5,101.5 Z"/></g>
<g><path style="opacity:1" fill="#967422" d="M 117.5,108.5 C 118.5,108.5 119.5,108.5 120.5,108.5C 120.5,109.5 120.5,110.5 120.5,111.5C 119.448,111.351 118.448,111.517 117.5,112C 119.167,112.333 120.833,112.667 122.5,113C 120.798,114.718 118.965,114.885 117,113.5C 116.333,114.167 116.333,114.833 117,115.5C 119.719,116.444 122.552,116.777 125.5,116.5C 125.5,118.5 125.5,120.5 125.5,122.5C 120.96,124.151 116.293,124.651 111.5,124C 112.833,123.667 114.167,123.333 115.5,123C 115.004,119.77 114.67,116.603 114.5,113.5C 112.897,113.688 111.563,113.188 110.5,112C 113.8,113.017 116.134,111.85 117.5,108.5 Z"/></g>
<g><path style="opacity:1" fill="#140f0a" d="M 173.5,105.5 C 172.411,109.51 170.411,113.01 167.5,116C 161.897,120.297 155.897,123.797 149.5,126.5C 141.692,127.622 133.859,128.622 126,129.5C 124.014,129.431 122.514,128.765 121.5,127.5C 125.201,126.882 128.867,126.049 132.5,125C 138.641,121.749 140.974,116.582 139.5,109.5C 146.214,109.27 152.88,108.603 159.5,107.5C 164.201,107.043 168.868,106.376 173.5,105.5 Z"/></g>
<g><path style="opacity:1" fill="#385b77" d="M 97.5,103.5 C 97.8333,103.5 98.1667,103.5 98.5,103.5C 98.8333,103.5 99.1667,103.5 99.5,103.5C 98.5,106.167 97.5,108.833 96.5,111.5C 96.1667,111.5 95.8333,111.5 95.5,111.5C 95.2872,108.549 95.9539,105.882 97.5,103.5 Z"/></g>
<g><path style="opacity:1" fill="#2a75c9" d="M 94.5,99.5 C 94.8923,101.179 95.3923,102.846 96,104.5C 96.3826,103.944 96.8826,103.611 97.5,103.5C 95.9539,105.882 95.2872,108.549 95.5,111.5C 95.5,112.167 95.1667,112.5 94.5,112.5C 93.1667,112.5 91.8333,112.5 90.5,112.5C 91.0799,107.823 92.4133,103.49 94.5,99.5 Z"/></g>
<g><path style="opacity:1" fill="#450101" d="M 173.5,104.5 C 173.5,104.833 173.5,105.167 173.5,105.5C 168.868,106.376 164.201,107.043 159.5,107.5C 159.5,107.167 159.5,106.833 159.5,106.5C 164.132,105.624 168.799,104.957 173.5,104.5 Z"/></g>
<g><path style="opacity:1" fill="#2b2b2b" d="M 75.5,132.5 C 77.5273,132.338 79.5273,132.505 81.5,133C 85.0158,134.957 88.6824,136.457 92.5,137.5C 92.5,137.833 92.5,138.167 92.5,138.5C 90.0024,139.912 87.3358,141.079 84.5,142C 84.1667,143 83.8333,144 83.5,145C 81.5432,144.657 79.8765,144.823 78.5,145.5C 77.8485,144.909 77.1818,144.243 76.5,143.5C 74.8084,146.231 73.1417,148.898 71.5,151.5C 67.2089,152.387 63.0423,154.387 59,157.5C 57.7481,160.366 57.7481,163.366 59,166.5C 62.3434,170.093 66.1767,173.093 70.5,175.5C 71.2508,176.376 71.7508,177.376 72,178.5C 72.3333,178.167 72.6667,177.833 73,177.5C 77.63,179.641 80.7966,182.641 82.5,186.5C 73.4352,183.468 65.1018,179.135 57.5,173.5C 58.3414,171.621 58.6747,169.621 58.5,167.5C 57.1779,167.33 56.0113,167.663 55,168.5C 54.4054,167.101 54.5721,165.768 55.5,164.5C 53.9263,163.016 52.593,161.349 51.5,159.5C 50.5224,159.977 49.6891,160.643 49,161.5C 46.4031,160.586 46.0698,158.919 48,156.5C 50.51,150.483 54.6766,145.816 60.5,142.5C 64.6568,135.784 70.6568,133.284 78.5,135C 76.8807,134.764 75.8807,133.931 75.5,132.5 Z"/></g>
<g><path style="opacity:1" fill="#1d1c1e" d="M 92.5,138.5 C 98.2955,137.705 102.962,139.539 106.5,144C 105.234,144.309 104.067,144.809 103,145.5C 102.308,146.437 102.475,147.103 103.5,147.5C 102.058,148.82 101.392,150.486 101.5,152.5C 100.833,152.833 100.167,153.167 99.5,153.5C 99.1028,151.338 97.7695,150.005 95.5,149.5C 96.8333,149.167 98.1667,148.833 99.5,148.5C 95.8573,146.605 93.8573,147.605 93.5,151.5C 95.1033,151.312 96.4366,151.812 97.5,153C 94.7583,153.295 92.425,152.462 90.5,150.5C 91.404,149.791 91.7373,148.791 91.5,147.5C 84.5365,147.721 83.8699,149.721 89.5,153.5C 87.1183,152.454 84.7849,152.454 82.5,153.5C 80.6567,151.147 79.3234,148.48 78.5,145.5C 79.8765,144.823 81.5432,144.657 83.5,145C 83.8333,144 84.1667,143 84.5,142C 87.3358,141.079 90.0024,139.912 92.5,138.5 Z"/></g>
<g><path style="opacity:1" fill="#c5c5c5" d="M 126.5,144.5 C 126.5,144.833 126.5,145.167 126.5,145.5C 125.325,145.719 124.325,145.386 123.5,144.5C 124.425,143.438 125.425,143.438 126.5,144.5 Z"/></g>
<g><path style="opacity:1" fill="#d2d2d2" d="M 147.5,143.5 C 149.337,143.639 149.67,144.306 148.5,145.5C 147.702,145.043 147.369,144.376 147.5,143.5 Z"/></g>
<g><path style="opacity:1" fill="#d1d1d1" d="M 78.5,145.5 C 79.3234,148.48 80.6567,151.147 82.5,153.5C 81.5,154.833 80.5,154.833 79.5,153.5C 79.4413,151.278 78.2747,150.278 76,150.5C 73.8656,151.085 72.3656,152.418 71.5,154.5C 70.4376,153.575 70.4376,152.575 71.5,151.5C 73.1417,148.898 74.8084,146.231 76.5,143.5C 77.1818,144.243 77.8485,144.909 78.5,145.5 Z"/></g>
<g><path style="opacity:1" fill="#0d0d0d" d="M 75.5,146.5 C 78.3771,148.846 78.0437,149.679 74.5,149C 75.2524,148.329 75.5858,147.496 75.5,146.5 Z"/></g>
<g><path style="opacity:1" fill="#cdcdcd" d="M 130.5,151.5 C 131.467,152.806 132.801,153.473 134.5,153.5C 134.5,151.833 134.5,150.167 134.5,148.5C 132.517,148.157 131.183,148.824 130.5,150.5C 129.596,149.791 129.263,148.791 129.5,147.5C 135.5,146.167 137.833,148.5 136.5,154.5C 133.551,156.056 130.884,155.722 128.5,153.5C 128.855,152.478 129.522,151.811 130.5,151.5 Z"/></g>
<g><path style="opacity:1" fill="#e7e7e7" d="M 141.5,153.5 C 141.5,154.167 141.167,154.5 140.5,154.5C 139.784,152.444 139.117,150.277 138.5,148C 140.337,146.52 142.337,146.52 144.5,148C 143.552,148.483 142.552,148.649 141.5,148.5C 141.5,150.167 141.5,151.833 141.5,153.5 Z"/></g>
<g><path style="opacity:1" fill="#c4c4c4" d="M 90.5,150.5 C 92.425,152.462 94.7583,153.295 97.5,153C 96.4366,151.812 95.1033,151.312 93.5,151.5C 93.8573,147.605 95.8573,146.605 99.5,148.5C 98.1667,148.833 96.8333,149.167 95.5,149.5C 97.7695,150.005 99.1028,151.338 99.5,153.5C 97.1206,156.14 94.6206,156.14 92,153.5C 91.3292,154.252 90.4959,154.586 89.5,154.5C 89.5,154.167 89.5,153.833 89.5,153.5C 83.8699,149.721 84.5365,147.721 91.5,147.5C 91.7373,148.791 91.404,149.791 90.5,150.5 Z"/></g>
<g><path style="opacity:1" fill="#1a1a1a" d="M 90.5,150.5 C 89.325,150.719 88.325,150.386 87.5,149.5C 88.8595,148.335 89.8595,148.668 90.5,150.5 Z"/></g>
<g><path style="opacity:1" fill="#cdcdcd" d="M 121.5,153.5 C 119.562,155.163 117.228,155.829 114.5,155.5C 111.251,149.384 113.251,146.717 120.5,147.5C 120.649,148.552 120.483,149.552 120,150.5C 117.872,147.826 116.039,147.993 114.5,151C 114.645,151.772 114.978,152.439 115.5,153C 117.473,153.495 119.473,153.662 121.5,153.5 Z"/></g>
<g><path style="opacity:1" fill="#f6f6f6" d="M 122.5,147.5 C 123.5,147.5 124.5,147.5 125.5,147.5C 125.663,149.857 125.497,152.19 125,154.5C 124.809,152.292 124.309,150.292 123.5,148.5C 122.833,148.5 122.5,148.167 122.5,147.5 Z"/></g>
<g><path style="opacity:1" fill="#555555" d="M 130.5,151.5 C 130.5,151.167 130.5,150.833 130.5,150.5C 131.183,148.824 132.517,148.157 134.5,148.5C 134.5,150.167 134.5,151.833 134.5,153.5C 132.801,153.473 131.467,152.806 130.5,151.5 Z"/></g>
<g><path style="opacity:1" fill="#bfbfbf" d="M 154.5,147.5 C 159.993,146.178 162.493,148.178 162,153.5C 157.914,156.518 154.748,155.851 152.5,151.5C 152.752,149.927 153.418,148.594 154.5,147.5 Z"/></g>
<g><path style="opacity:1" fill="#050505" d="M 155.5,148.5 C 158.91,148.384 160.244,150.05 159.5,153.5C 155.065,154.078 153.732,152.411 155.5,148.5 Z"/></g>
<g><path style="opacity:1" fill="#e6e6e6" d="M 173.5,153.5 C 172.833,154.833 172.167,154.833 171.5,153.5C 171.5,151.833 171.5,150.167 171.5,148.5C 170.167,148.5 168.833,148.5 167.5,148.5C 167.5,150.167 167.5,151.833 167.5,153.5C 166.833,154.833 166.167,154.833 165.5,153.5C 165.859,151.234 165.192,149.401 163.5,148C 166.76,147.216 169.927,147.383 173,148.5C 173.494,150.134 173.66,151.801 173.5,153.5 Z"/></g>
<g><path style="opacity:1" fill="#171717" d="M 171.5,153.5 C 170.167,153.5 168.833,153.5 167.5,153.5C 167.5,151.833 167.5,150.167 167.5,148.5C 168.833,148.5 170.167,148.5 171.5,148.5C 171.5,150.167 171.5,151.833 171.5,153.5 Z"/></g>
<g><path style="opacity:1" fill="#cbcbcb" d="M 103.5,147.5 C 105.527,147.338 107.527,147.505 109.5,148C 112.234,152.001 111.067,154.501 106,155.5C 103.817,155.478 102.317,154.478 101.5,152.5C 101.392,150.486 102.058,148.82 103.5,147.5 Z"/></g>
<g><path style="opacity:1" fill="#0b0b0b" d="M 104.5,148.5 C 107.91,148.384 109.244,150.05 108.5,153.5C 106.833,153.5 105.167,153.5 103.5,153.5C 103.366,151.708 103.699,150.042 104.5,148.5 Z"/></g>
<g><path style="opacity:1" fill="#1f1f1f" d="M 79.5,153.5 C 78.9569,153.56 78.6236,153.893 78.5,154.5C 81.0637,155.265 83.397,155.598 85.5,155.5C 86.4293,156.315 87.4293,157.148 88.5,158C 85.0801,158.517 81.7468,159.35 78.5,160.5C 75.4734,163.524 72.14,166.191 68.5,168.5C 69.5901,170.003 70.7567,170.336 72,169.5C 74.0976,173.656 76.5976,176.823 79.5,179C 84.569,178.657 88.9023,180.157 92.5,183.5C 91.0382,185.255 89.2049,186.588 87,187.5C 86.3828,186.551 86.5494,185.718 87.5,185C 86.1667,184.333 84.8333,184.333 83.5,185C 86.0972,185.779 86.0972,186.279 83.5,186.5C 83.1667,186.5 82.8333,186.5 82.5,186.5C 80.7966,182.641 77.63,179.641 73,177.5C 72.6667,177.833 72.3333,178.167 72,178.5C 71.7508,177.376 71.2508,176.376 70.5,175.5C 66.1767,173.093 62.3434,170.093 59,166.5C 57.7481,163.366 57.7481,160.366 59,157.5C 63.0423,154.387 67.2089,152.387 71.5,151.5C 70.4376,152.575 70.4376,153.575 71.5,154.5C 72.3656,152.418 73.8656,151.085 76,150.5C 78.2747,150.278 79.4413,151.278 79.5,153.5 Z"/></g>
<g><path style="opacity:1" fill="#e4e4e4" d="M 149.5,153.5 C 148.833,154.833 148.167,154.833 147.5,153.5C 147.859,151.234 147.192,149.401 145.5,148C 146.793,147.51 148.127,147.343 149.5,147.5C 149.5,149.5 149.5,151.5 149.5,153.5 Z"/></g>
<g><path style="opacity:1" fill="#808080" d="M 89.5,153.5 C 89.5,153.833 89.5,154.167 89.5,154.5C 88.4324,155.434 87.099,155.768 85.5,155.5C 83.397,155.598 81.0637,155.265 78.5,154.5C 78.6236,153.893 78.9569,153.56 79.5,153.5C 80.5,154.833 81.5,154.833 82.5,153.5C 84.7849,152.454 87.1183,152.454 89.5,153.5 Z"/></g>
<g><path style="opacity:1" fill="#757575" d="M 125.5,147.5 C 126.266,149.684 126.933,152.018 127.5,154.5C 125.833,155.833 124.167,155.833 122.5,154.5C 123.246,153.264 123.579,151.93 123.5,150.5C 123.5,149.833 123.5,149.167 123.5,148.5C 124.309,150.292 124.809,152.292 125,154.5C 125.497,152.19 125.663,149.857 125.5,147.5 Z"/></g>
<g><path style="opacity:1" fill="#747474" d="M 141.5,153.5 C 143.5,153.5 145.5,153.5 147.5,153.5C 148.167,154.833 148.833,154.833 149.5,153.5C 150.376,153.369 151.043,153.702 151.5,154.5C 150.5,154.833 149.5,155.167 148.5,155.5C 145.674,154.711 143.007,154.377 140.5,154.5C 141.167,154.5 141.5,154.167 141.5,153.5 Z"/></g>
<g><path style="opacity:1" fill="#666666" d="M 165.5,153.5 C 166.167,154.833 166.833,154.833 167.5,153.5C 168.833,153.5 170.167,153.5 171.5,153.5C 172.167,154.833 172.833,154.833 173.5,153.5C 174.376,153.369 175.043,153.702 175.5,154.5C 174.5,154.833 173.5,155.167 172.5,155.5C 170.28,154.398 168.113,154.398 166,155.5C 163.015,154.96 162.848,154.294 165.5,153.5 Z"/></g>
<g><path style="opacity:1" fill="#6b5333" d="M 97.5,165.5 C 98.1667,166.167 98.8333,166.833 99.5,167.5C 98.1667,167.5 96.8333,167.5 95.5,167.5C 95.5,169.5 95.5,171.5 95.5,173.5C 96.8333,173.5 98.1667,173.5 99.5,173.5C 98.1667,174.167 96.8333,174.833 95.5,175.5C 95.8308,177.322 96.4975,178.989 97.5,180.5C 94.7531,180.813 92.0865,180.48 89.5,179.5C 92.1667,175.167 92.1667,170.833 89.5,166.5C 92.0865,165.52 94.7531,165.187 97.5,165.5 Z"/></g>
<g><path style="opacity:1" fill="#8d6a35" d="M 125.5,159.5 C 126.5,159.5 127.5,159.5 128.5,159.5C 127.963,164.739 128.63,169.739 130.5,174.5C 127.155,174.822 123.822,175.155 120.5,175.5C 114.962,174.678 113.629,172.011 116.5,167.5C 118.933,165.946 121.6,165.28 124.5,165.5C 124.773,163.549 124.107,162.049 122.5,161C 123.737,160.768 124.737,160.268 125.5,159.5 Z"/></g>
<g><path style="opacity:1" fill="#5c5c5c" d="M 201.5,164.5 C 188.004,176.75 172.337,185.083 154.5,189.5C 154.196,188.85 153.863,188.183 153.5,187.5C 158.296,185.35 163.13,183.35 168,181.5C 168.333,181.833 168.667,182.167 169,182.5C 171.821,180.678 174.321,178.511 176.5,176C 182.174,174.08 187.34,171.247 192,167.5C 192.333,167.833 192.667,168.167 193,168.5C 194.5,167 196,165.5 197.5,164C 198.819,163.805 200.153,163.972 201.5,164.5 Z"/></g>
<g><path style="opacity:1" fill="#170401" d="M 121.5,166.5 C 122.5,166.5 123.5,166.5 124.5,166.5C 124.5,168.833 124.5,171.167 124.5,173.5C 119.877,174.592 118.044,172.925 119,168.5C 119.995,167.934 120.828,167.267 121.5,166.5 Z"/></g>
<g><path style="opacity:1" fill="#b7925c" d="M 92.5,166.5 C 93.8001,168.223 94.4668,170.39 94.5,173C 94.1667,175.167 93.8333,177.333 93.5,179.5C 92.5078,175.217 92.1744,170.884 92.5,166.5 Z"/></g>
<g><path style="opacity:1" fill="#967f56" d="M 111.5,172.5 C 111.5,173.5 111.5,174.5 111.5,175.5C 110.5,175.5 109.5,175.5 108.5,175.5C 108.5,174.5 108.5,173.5 108.5,172.5C 109.5,172.5 110.5,172.5 111.5,172.5 Z"/></g>
<g><path style="opacity:1" fill="#897d62" d="M 133.5,172.5 C 134.5,172.5 135.5,172.5 136.5,172.5C 136.5,173.5 136.5,174.5 136.5,175.5C 135.5,175.5 134.5,175.5 133.5,175.5C 133.5,174.5 133.5,173.5 133.5,172.5 Z"/></g>
<g><path style="opacity:1" fill="#95744b" d="M 141.5,165.5 C 144.187,165.336 146.854,165.503 149.5,166C 150.211,168.796 150.878,171.63 151.5,174.5C 148.327,174.852 144.994,175.019 141.5,175C 140.483,173.951 140.316,172.784 141,171.5C 142.916,170.072 145.083,169.072 147.5,168.5C 145.641,165.981 143.641,165.981 141.5,168.5C 140.438,167.575 140.438,166.575 141.5,165.5 Z"/></g>
<g><path style="opacity:1" fill="#1e0500" d="M 143.5,171.5 C 144.978,171.238 146.311,171.571 147.5,172.5C 146.833,172.833 146.167,173.167 145.5,173.5C 144.287,173.253 143.62,172.586 143.5,171.5 Z"/></g>
<g><path style="opacity:1" fill="#242425" d="M 168.5,176.5 C 168.842,177.338 169.508,177.672 170.5,177.5C 169.909,178.151 169.243,178.818 168.5,179.5C 160.567,181.232 152.9,183.732 145.5,187C 131.559,189.884 117.559,190.217 103.5,188C 102.944,187.617 102.611,187.117 102.5,186.5C 114.505,186.667 126.505,186.5 138.5,186C 147.279,184.561 155.613,182.061 163.5,178.5C 165.028,177.691 166.694,177.024 168.5,176.5 Z"/></g>
<g><path style="opacity:1" fill="#110f0e" d="M 158.5,133.5 C 157.425,136.081 155.758,138.247 153.5,140C 147.499,139.323 141.499,139.656 135.5,141C 132.1,141.42 129.1,142.587 126.5,144.5C 125.425,143.438 124.425,143.438 123.5,144.5C 124.325,145.386 125.325,145.719 126.5,145.5C 125.167,146.167 123.833,146.833 122.5,147.5C 122.5,148.167 122.833,148.5 123.5,148.5C 123.5,149.167 123.5,149.833 123.5,150.5C 122.761,150.369 122.094,150.536 121.5,151C 122.598,151.77 122.598,152.603 121.5,153.5C 119.473,153.662 117.473,153.495 115.5,153C 114.978,152.439 114.645,151.772 114.5,151C 116.039,147.993 117.872,147.826 120,150.5C 120.483,149.552 120.649,148.552 120.5,147.5C 113.251,146.717 111.251,149.384 114.5,155.5C 114.918,156.222 115.584,156.722 116.5,157C 115.146,158.294 113.812,158.46 112.5,157.5C 111.158,159.005 109.492,159.672 107.5,159.5C 107.649,158.448 107.483,157.448 107,156.5C 104.358,158.238 101.525,159.571 98.5,160.5C 101.527,165.422 105.027,165.756 109,161.5C 109.167,162.333 109.333,163.167 109.5,164C 107.806,166.222 106.806,168.722 106.5,171.5C 108.451,171.773 109.951,171.107 111,169.5C 111.483,170.448 111.649,171.448 111.5,172.5C 110.5,172.5 109.5,172.5 108.5,172.5C 108.5,173.5 108.5,174.5 108.5,175.5C 107.778,175.082 107.278,174.416 107,173.5C 105.855,174.684 104.688,174.684 103.5,173.5C 106.119,168.061 104.119,165.395 97.5,165.5C 94.7531,165.187 92.0865,165.52 89.5,166.5C 92.1667,170.833 92.1667,175.167 89.5,179.5C 92.0865,180.48 94.7531,180.813 97.5,180.5C 98.9145,180.094 100.081,180.761 101,182.5C 102.84,181.167 103.34,181.334 102.5,183C 123.192,186.036 143.525,184.536 163.5,178.5C 155.613,182.061 147.279,184.561 138.5,186C 126.505,186.5 114.505,186.667 102.5,186.5C 99.4697,185.472 96.6363,184.139 94,182.5C 93.6174,183.056 93.1174,183.389 92.5,183.5C 88.9023,180.157 84.569,178.657 79.5,179C 76.5976,176.823 74.0976,173.656 72,169.5C 70.7567,170.336 69.5901,170.003 68.5,168.5C 72.14,166.191 75.4734,163.524 78.5,160.5C 81.7468,159.35 85.0801,158.517 88.5,158C 87.4293,157.148 86.4293,156.315 85.5,155.5C 87.099,155.768 88.4324,155.434 89.5,154.5C 90.4959,154.586 91.3292,154.252 92,153.5C 94.6206,156.14 97.1206,156.14 99.5,153.5C 100.167,153.167 100.833,152.833 101.5,152.5C 102.317,154.478 103.817,155.478 106,155.5C 111.067,154.501 112.234,152.001 109.5,148C 107.527,147.505 105.527,147.338 103.5,147.5C 102.475,147.103 102.308,146.437 103,145.5C 104.067,144.809 105.234,144.309 106.5,144C 102.962,139.539 98.2955,137.705 92.5,138.5C 92.5,138.167 92.5,137.833 92.5,137.5C 93.5,137.5 94.5,137.5 95.5,137.5C 116.994,142.443 137.994,141.11 158.5,133.5 Z"/></g>
<g><path style="opacity:1" fill="#1e0401" d="M 99.5,167.5 C 102.167,169.5 102.167,171.5 99.5,173.5C 98.1667,173.5 96.8333,173.5 95.5,173.5C 95.5,171.5 95.5,169.5 95.5,167.5C 96.8333,167.5 98.1667,167.5 99.5,167.5 Z"/></g>
<g><path style="opacity:1" fill="#997e4e" d="M 97.5,165.5 C 104.119,165.395 106.119,168.061 103.5,173.5C 101.087,175.051 98.4206,175.717 95.5,175.5C 96.8333,174.833 98.1667,174.167 99.5,173.5C 102.167,171.5 102.167,169.5 99.5,167.5C 98.8333,166.833 98.1667,166.167 97.5,165.5 Z"/></g>
<g><path style="opacity:1" fill="#3d3d3d" d="M 223.5,135.5 C 218.349,146.791 211.016,156.458 201.5,164.5C 200.153,163.972 198.819,163.805 197.5,164C 196,165.5 194.5,167 193,168.5C 192.667,168.167 192.333,167.833 192,167.5C 187.34,171.247 182.174,174.08 176.5,176C 174.321,178.511 171.821,180.678 169,182.5C 168.667,182.167 168.333,181.833 168,181.5C 163.13,183.35 158.296,185.35 153.5,187.5C 153.863,188.183 154.196,188.85 154.5,189.5C 152.383,188.986 150.216,188.653 148,188.5C 134.765,189.773 121.598,191.106 108.5,192.5C 99.6637,192.1 91.3303,190.1 83.5,186.5C 86.0972,186.279 86.0972,185.779 83.5,185C 84.8333,184.333 86.1667,184.333 87.5,185C 86.5494,185.718 86.3828,186.551 87,187.5C 89.2049,186.588 91.0382,185.255 92.5,183.5C 93.1174,183.389 93.6174,183.056 94,182.5C 96.6363,184.139 99.4697,185.472 102.5,186.5C 102.611,187.117 102.944,187.617 103.5,188C 117.559,190.217 131.559,189.884 145.5,187C 152.9,183.732 160.567,181.232 168.5,179.5C 169.243,178.818 169.909,178.151 170.5,177.5C 171.738,177.19 171.738,176.69 170.5,176C 172.134,175.506 173.801,175.34 175.5,175.5C 175.5,174.5 175.5,173.5 175.5,172.5C 176.873,172.657 178.207,172.49 179.5,172C 185.552,167.005 191.885,163.172 198.5,160.5C 200.85,156.512 203.85,153.179 207.5,150.5C 208.429,149.311 208.762,147.978 208.5,146.5C 209.117,146.611 209.617,146.944 210,147.5C 212.172,145.916 213.839,143.916 215,141.5C 215.333,141.833 215.667,142.167 216,142.5C 216.853,140.065 217.853,137.731 219,135.5C 219.333,136.167 219.667,136.833 220,137.5C 220.816,136.177 221.983,135.511 223.5,135.5 Z"/></g>
<g><path style="opacity:0.771" fill="#525252" d="M 154.5,189.5 C 148.856,190.941 143.189,192.274 137.5,193.5C 127.833,193.5 118.167,193.5 108.5,193.5C 108.5,193.167 108.5,192.833 108.5,192.5C 121.598,191.106 134.765,189.773 148,188.5C 150.216,188.653 152.383,188.986 154.5,189.5 Z"/></g>
</svg>
